<?xml version="1.0" standalone="no"?>
<!DOCTYPE svg PUBLIC "-//W3C//DTD SVG 1.1//EN" "http://www.w3.org/Graphics/SVG/1.1/DTD/svg11.dtd">
<svg xmlns="http://www.w3.org/2000/svg">
<metadata>Copyright (C) 2018 by original authors @ fontello.com</metadata>
<defs>
<font id="fontello" horiz-adv-x="1000" >
<font-face font-family="fontello" font-weight="400" font-stretch="normal" units-per-em="1000" ascent="850" descent="-150" />
<missing-glyph horiz-adv-x="1000" />
<glyph glyph-name="home" unicode="&#xe800;" d="M786 296v-267q0-15-11-25t-25-11h-214v214h-143v-214h-214q-15 0-25 11t-11 25v267q0 1 0 2t0 2l321 264 321-264q1-1 1-4z m124 39l-34-41q-5-5-12-6h-2q-7 0-12 3l-386 322-386-322q-7-4-13-3-7 1-12 6l-35 41q-4 6-3 13t6 12l401 334q18 15 42 15t43-15l136-113v108q0 8 5 13t13 5h107q8 0 13-5t5-13v-227l122-102q6-4 6-12t-4-13z" horiz-adv-x="928.6" />

<glyph glyph-name="close" unicode="&#xe801;" d="M0 90q0 36 26 62l195 195-195 196q-26 25-26 61t26 61 61 25 61-25l196-196 195 196q25 25 61 25t61-25 25-61-25-61l-195-196 195-195q25-26 25-62t-25-61q-25-25-61-25t-61 25l-195 195-196-195q-25-25-61-25t-61 25q-26 26-26 61z" horiz-adv-x="686.5" />

<glyph glyph-name="sign-out" unicode="&#xe802;" d="M357 46q0-2 1-11t0-14-2-14-5-11-12-3h-178q-67 0-114 47t-47 114v392q0 67 47 114t114 47h178q8 0 13-5t5-13q0-2 1-11t0-15-2-13-5-11-12-3h-178q-37 0-63-26t-27-64v-392q0-37 27-63t63-27h174t6 0 7-2 4-3 4-5 1-8z m518 304q0-14-11-25l-303-304q-11-10-25-10t-25 10-11 25v161h-250q-14 0-25 11t-11 25v214q0 15 11 25t25 11h250v161q0 14 11 25t25 10 25-10l303-304q11-10 11-25z" horiz-adv-x="928.6" />

<glyph glyph-name="chevron-down" unicode="&#xe803;" d="M939 399l-414-413q-10-11-25-11t-25 11l-414 413q-11 11-11 26t11 25l93 92q10 11 25 11t25-11l296-296 296 296q11 11 25 11t26-11l92-92q11-11 11-25t-11-26z" horiz-adv-x="1000" />

<glyph glyph-name="chevron-left" unicode="&#xe804;" d="M654 682l-297-296 297-297q10-10 10-25t-10-25l-93-93q-11-10-25-10t-25 10l-414 415q-11 10-11 25t11 25l414 414q10 11 25 11t25-11l93-93q10-10 10-25t-10-25z" horiz-adv-x="714.3" />

<glyph glyph-name="chevron-right" unicode="&#xe805;" d="M618 361l-414-415q-11-10-25-10t-25 10l-93 93q-11 11-11 25t11 25l296 297-296 296q-11 11-11 25t11 25l93 93q10 11 25 11t25-11l414-414q10-11 10-25t-10-25z" horiz-adv-x="714.3" />

<glyph glyph-name="chevron-up" unicode="&#xe806;" d="M939 107l-92-92q-11-10-26-10t-25 10l-296 297-296-297q-11-10-25-10t-25 10l-93 92q-11 11-11 26t11 25l414 414q11 10 25 10t25-10l414-414q11-11 11-25t-11-26z" horiz-adv-x="1000" />

<glyph glyph-name="thumbs-o-up" unicode="&#xe807;" d="M143 100q0 15-11 25t-25 11-25-11-11-25 11-25 25-11 25 11 11 25z m643 321q0 29-22 50t-50 22h-196q0 32 27 89t26 89q0 55-17 81t-72 27q-14-15-21-48t-17-70-33-61q-13-13-43-51-2-3-13-16t-18-23-19-24-22-25-22-19-22-15-20-6h-18v-357h18q7 0 18-1t18-4 21-6 20-7 20-6 16-6q118-41 191-41h67q107 0 107 93 0 15-2 31 16 9 26 30t10 41-10 38q29 28 29 67 0 14-5 31t-14 26q18 1 30 26t12 45z m71 1q0-50-27-91 5-18 5-38 0-43-21-81 1-12 1-24 0-56-33-99 0-78-48-123t-126-45h-72q-54 0-106 13t-121 36q-65 23-77 23h-161q-29 0-50 21t-21 50v357q0 30 21 51t50 21h153q20 13 77 86 32 42 60 72 13 14 19 48t17 70 35 60q22 21 50 21 47 0 84-18t57-57 20-104q0-51-27-107h98q58 0 101-42t42-100z" horiz-adv-x="857.1" />

<glyph glyph-name="calendar" unicode="&#xe808;" d="M71-79h161v161h-161v-161z m197 0h178v161h-178v-161z m-197 197h161v178h-161v-178z m197 0h178v178h-178v-178z m-197 214h161v161h-161v-161z m411-411h179v161h-179v-161z m-214 411h178v161h-178v-161z m428-411h161v161h-161v-161z m-214 197h179v178h-179v-178z m-196 482v161q0 7-6 12t-12 6h-36q-7 0-12-6t-6-12v-161q0-7 6-13t12-5h36q7 0 12 5t6 13z m410-482h161v178h-161v-178z m-214 214h179v161h-179v-161z m214 0h161v161h-161v-161z m18 268v161q0 7-5 12t-13 6h-35q-7 0-13-6t-5-12v-161q0-7 5-13t13-5h35q8 0 13 5t5 13z m215 36v-715q0-29-22-50t-50-21h-786q-29 0-50 21t-21 50v715q0 29 21 50t50 21h72v54q0 37 26 63t63 26h36q37 0 63-26t26-63v-54h214v54q0 37 27 63t63 26h35q37 0 64-26t26-63v-54h71q29 0 50-21t22-50z" horiz-adv-x="928.6" />

<glyph glyph-name="link" unicode="&#xe809;" d="M813 171q0 23-16 38l-116 116q-16 16-38 16-24 0-40-18 1-1 10-10t12-12 9-11 7-14 2-15q0-23-16-38t-38-16q-8 0-15 2t-14 7-11 9-12 12-10 10q-19-17-19-40 0-23 16-38l115-116q15-15 38-15 22 0 38 15l82 81q16 16 16 37z m-393 394q0 22-15 38l-115 115q-16 16-38 16-22 0-38-15l-82-82q-16-15-16-37 0-22 16-38l116-116q15-15 38-15 23 0 40 17-2 2-11 11t-12 12-8 10-7 14-2 16q0 22 15 38t38 15q9 0 16-2t14-7 11-8 12-12 10-11q18 17 18 41z m500-394q0-66-48-113l-82-81q-46-47-113-47-68 0-114 48l-115 115q-46 47-46 114 0 68 49 116l-49 49q-48-49-116-49-67 0-114 47l-116 116q-47 47-47 114t47 113l82 82q47 46 114 46 67 0 114-47l115-116q46-46 46-113 0-69-49-117l49-49q48 49 116 49 67 0 114-47l116-116q47-47 47-114z" horiz-adv-x="928.6" />

<glyph glyph-name="bar-chart" unicode="&#xe80a;" d="M357 350v-286h-143v286h143z m214 286v-572h-142v572h142z m572-643v-72h-1143v858h71v-786h1072z m-357 500v-429h-143v429h143z m214 214v-643h-143v643h143z" horiz-adv-x="1142.9" />

<glyph glyph-name="gift" unicode="&#xe80b;" d="M518 93v400h-179v-400q0-14 10-21t26-8h107q16 0 26 8t10 21z m-255 471h109l-70 90q-15 17-39 17-22 0-38-15t-15-38 15-38 38-16z m384 54q0 22-15 38t-38 15q-24 0-39-17l-69-90h108q22 0 38 16t15 38z m210-143v-179q0-7-5-12t-13-5h-53v-233q0-22-16-37t-38-16h-607q-22 0-38 16t-16 37v233h-53q-8 0-13 5t-5 12v179q0 8 5 13t13 5h245q-51 0-88 36t-37 89 37 88 88 37q60 0 94-43l72-92 71 92q34 43 94 43 52 0 88-37t37-88-37-89-88-36h245q8 0 13-5t5-13z" horiz-adv-x="857.1" />

<glyph glyph-name="cogs" unicode="&#xe80c;" d="M500 350q0 59-42 101t-101 42-101-42-42-101 42-101 101-42 101 42 42 101z m429-286q0 29-22 51t-50 21-50-21-21-51q0-29 21-50t50-21 51 21 21 50z m0 572q0 29-22 50t-50 21-50-21-21-50q0-30 21-51t50-21 51 21 21 51z m-215-235v-103q0-6-4-11t-8-6l-87-14q-6-19-18-42 19-27 50-64 4-6 4-11 0-7-4-11-12-17-46-50t-43-33q-7 0-12 4l-64 50q-21-11-43-17-6-60-13-87-4-13-17-13h-104q-6 0-11 4t-5 10l-13 85q-19 6-42 18l-66-50q-4-4-11-4-6 0-12 4-80 75-80 90 0 5 4 10 5 8 23 30t26 34q-13 24-20 46l-85 13q-5 1-9 5t-4 11v104q0 5 4 10t9 6l86 14q7 19 18 42-19 27-50 64-4 6-4 11 0 7 4 12 12 16 46 49t44 33q6 0 12-4l64-50q19 10 43 18 6 60 13 86 3 13 16 13h104q6 0 11-4t6-10l13-85q19-6 42-17l65 49q5 4 12 4 6 0 11-4 81-75 81-90 0-4-4-10-7-9-24-30t-25-34q13-27 19-46l85-12q6-2 9-6t4-11z m357-298v-78q0-9-83-17-6-15-16-29 28-63 28-77 0-2-2-4-68-40-69-40-5 0-26 27t-29 37q-11-1-17-1t-17 1q-7-11-29-37t-25-27q-1 0-69 40-3 2-3 4 0 14 29 77-10 14-17 29-83 8-83 17v78q0 9 83 18 7 16 17 29-29 63-29 77 0 2 3 4 2 1 19 11t33 19 17 9q4 0 25-26t29-38q12 1 17 1t17-1q28 40 51 63l4 1q2 0 69-39 2-2 2-4 0-14-28-77 9-13 16-29 83-9 83-18z m0 572v-78q0-9-83-18-6-15-16-29 28-63 28-77 0-2-2-4-68-39-69-39-5 0-26 26t-29 38q-11-1-17-1t-17 1q-7-12-29-38t-25-26q-1 0-69 39-3 2-3 4 0 14 29 77-10 14-17 29-83 9-83 18v78q0 9 83 17 7 16 17 29-29 63-29 77 0 2 3 4 2 1 19 11t33 19 17 9q4 0 25-26t29-37q12 1 17 1t17-1q28 39 51 62l4 1q2 0 69-39 2-2 2-4 0-14-28-77 9-13 16-29 83-8 83-17z" horiz-adv-x="1071.4" />

<glyph glyph-name="cog" unicode="&#xe80d;" d="M571 350q0 59-41 101t-101 42-101-42-42-101 42-101 101-42 101 42 41 101z m286 61v-124q0-7-4-13t-11-7l-104-16q-10-30-21-51 19-27 59-77 6-6 6-13t-5-13q-15-21-55-61t-53-39q-7 0-14 5l-77 60q-25-13-51-21-9-76-16-104-4-16-20-16h-124q-8 0-14 5t-6 12l-16 103q-27 9-50 21l-79-60q-6-5-14-5-8 0-14 6-70 64-92 94-4 5-4 13 0 6 5 12 8 12 28 37t30 40q-15 28-23 55l-102 15q-7 1-11 7t-5 13v124q0 7 5 13t10 7l104 16q8 25 22 51-23 32-60 77-6 7-6 14 0 5 5 12 15 20 55 60t53 40q7 0 15-5l77-60q24 13 50 21 9 76 17 104 3 16 20 16h124q7 0 13-5t7-12l15-103q28-9 51-20l79 59q5 5 13 5 7 0 14-5 72-67 92-95 4-5 4-12 0-7-4-13-9-12-29-37t-30-40q15-28 23-54l102-16q7-1 12-7t4-13z" horiz-adv-x="857.1" />

<glyph glyph-name="eye" unicode="&#xe80e;" d="M929 314q-85 132-213 197 34-58 34-125 0-103-73-177t-177-73-177 73-73 177q0 67 34 125-128-65-213-197 75-114 187-182t242-68 243 68 186 182z m-402 215q0 11-8 19t-19 7q-70 0-120-50t-50-119q0-11 8-19t19-8 19 8 8 19q0 48 34 82t82 34q11 0 19 8t8 19z m473-215q0-19-11-38-78-129-210-206t-279-77-279 77-210 206q-11 19-11 38t11 39q78 128 210 205t279 78 279-78 210-205q11-20 11-39z" horiz-adv-x="1000" />

<glyph glyph-name="tag" unicode="&#xe80f;" d="M250 600q0 30-21 51t-50 20-51-20-21-51 21-50 51-21 50 21 21 50z m595-321q0-30-20-51l-274-274q-22-21-51-21-30 0-50 21l-399 399q-21 21-36 57t-15 65v232q0 29 21 50t50 22h233q29 0 65-15t57-36l399-399q20-21 20-50z" horiz-adv-x="857.1" />

<glyph glyph-name="search" unicode="&#xe810;" d="M643 386q0 103-73 176t-177 74-177-74-73-176 73-177 177-73 177 73 73 177z m286-465q0-29-22-50t-50-21q-30 0-50 21l-191 191q-100-69-223-69-80 0-153 31t-125 84-84 125-31 153 31 152 84 126 125 84 153 31 153-31 125-84 84-126 31-152q0-123-69-223l191-191q21-21 21-51z" horiz-adv-x="928.6" />

<glyph glyph-name="key" unicode="&#xe811;" d="M464 564q0 45-31 76t-76 31-76-31-31-76q0-23 11-46-23 11-47 11-44 0-76-32t-31-76 31-75 76-32 76 32 31 75q0 24-10 47 23-11 46-11 45 0 76 31t31 76z m475-393q0-9-27-36t-37-28q-5 0-16 9t-20 19-22 22-13 14l-54-53 123-123q15-16 15-38 0-23-21-45t-46-22q-22 0-37 16l-375 374q-98-73-204-73-91 0-148 57t-57 149q0 89 53 174t138 139 175 53q91 0 148-58t57-148q0-105-73-203l198-199 54 54q-2 2-14 14t-23 21-18 21-9 15q0 10 27 37t37 28q7 0 13-6 3-3 26-25t45-44 49-48 40-44 16-23z" horiz-adv-x="1000" />

<glyph glyph-name="refresh" unicode="&#xe812;" d="M843 261q0-3 0-4-36-150-150-243t-267-93q-81 0-157 31t-136 88l-72-72q-11-11-25-11t-25 11-11 25v250q0 14 11 25t25 11h250q14 0 25-11t10-25-10-25l-77-77q40-36 90-57t105-20q74 0 139 37t104 99q6 10 30 66 4 13 16 13h107q8 0 13-6t5-12z m14 446v-250q0-14-10-25t-26-11h-250q-14 0-25 11t-10 25 10 25l77 77q-82 77-194 77-75 0-140-37t-104-99q-6-10-29-66-5-13-17-13h-111q-7 0-13 6t-5 12v4q36 150 151 243t268 93q81 0 158-31t137-88l72 72q11 11 25 11t26-11 10-25z" horiz-adv-x="857.1" />

<glyph glyph-name="check" unicode="&#xe813;" d="M933 534q0-22-16-38l-404-404-76-76q-16-15-38-15t-38 15l-76 76-202 202q-15 16-15 38t15 38l76 76q16 16 38 16t38-16l164-165 366 367q16 16 38 16t38-16l76-76q16-15 16-38z" horiz-adv-x="1000" />

<glyph glyph-name="minus" unicode="&#xe814;" d="M786 439v-107q0-22-16-38t-38-15h-678q-23 0-38 15t-16 38v107q0 23 16 38t38 16h678q23 0 38-16t16-38z" horiz-adv-x="785.7" />

<glyph glyph-name="trash-o" unicode="&#xe815;" d="M286 439v-321q0-8-5-13t-13-5h-36q-8 0-13 5t-5 13v321q0 8 5 13t13 5h36q8 0 13-5t5-13z m143 0v-321q0-8-5-13t-13-5h-36q-8 0-13 5t-5 13v321q0 8 5 13t13 5h36q8 0 13-5t5-13z m142 0v-321q0-8-5-13t-12-5h-36q-8 0-13 5t-5 13v321q0 8 5 13t13 5h36q7 0 12-5t5-13z m72-404v529h-500v-529q0-12 4-22t8-15 6-5h464q2 0 6 5t8 15 4 22z m-375 601h250l-27 65q-4 5-9 6h-177q-6-1-10-6z m518-18v-36q0-8-5-13t-13-5h-54v-529q0-46-26-80t-63-34h-464q-37 0-63 33t-27 79v531h-53q-8 0-13 5t-5 13v36q0 8 5 13t13 5h172l39 93q9 21 31 35t44 15h178q23 0 44-15t30-35l39-93h173q8 0 13-5t5-13z" horiz-adv-x="785.7" />

<glyph glyph-name="download" unicode="&#xe816;" d="M714 100q0 15-10 25t-25 11-25-11-11-25 11-25 25-11 25 11 10 25z m143 0q0 15-10 25t-26 11-25-11-10-25 10-25 25-11 26 11 10 25z m72 125v-179q0-22-16-37t-38-16h-821q-23 0-38 16t-16 37v179q0 22 16 38t38 16h259l75-76q33-32 76-32t76 32l76 76h259q22 0 38-16t16-38z m-182 318q10-23-8-39l-250-250q-10-11-25-11t-25 11l-250 250q-17 16-8 39 10 21 33 21h143v250q0 15 11 25t25 11h143q14 0 25-11t10-25v-250h143q24 0 33-21z" horiz-adv-x="928.6" />

<glyph glyph-name="camera" unicode="&#xe817;" d="M536 475q66 0 113-47t47-114-47-113-113-47-114 47-47 113 47 114 114 47z m393 232q59 0 101-42t41-101v-500q0-59-41-101t-101-42h-786q-59 0-101 42t-42 101v500q0 59 42 101t101 42h125l28 76q11 27 39 47t58 20h286q29 0 57-20t39-47l29-76h125z m-393-643q103 0 176 74t74 176-74 177-176 73-177-73-73-177 73-176 177-74z" horiz-adv-x="1071.4" />

<glyph glyph-name="globe" unicode="&#xe818;" d="M429 779q116 0 215-58t156-156 57-215-57-215-156-156-215-58-216 58-155 156-58 215 58 215 155 156 216 58z m153-291q-2-1-6-5t-7-6q1 0 2 3t3 6 2 4q3 4 12 8 8 4 29 7 19 5 29-6-1 1 5 7t8 7q2 1 8 3t9 4l1 12q-7-1-10 4t-3 12q0-2-4-5 0 4-2 5t-7-1-5-1q-5 2-8 5t-5 9-2 8q-1 3-5 6t-5 6q-1 1-2 3t-1 4-3 3-3 1-4-3-4-5-2-3q-2 1-4 1t-2-1-3-1-3-2q-1-2-4-2t-5-1q8 3-1 6-5 2-9 2 6 2 5 6t-5 8h3q-1 2-5 5t-10 5-7 3q-5 3-19 5t-18 1q-3-4-3-6t2-8 2-7q1-3-3-7t-3-7q0-4 7-9t6-12q-2-4-9-9t-9-6q-3-5-1-11t6-9q1-1 1-2t-2-3-3-2-4-2l-1-1q-7-3-12 3t-7 15q-4 14-9 17-13 4-16-1-3 7-23 15-14 5-33 2 4 0 0 8-4 9-10 7 1 3 2 10t0 7q2 8 7 13 1 1 4 5t5 7 1 4q19-3 28 6 2 3 6 9t6 10q5 3 8 3t8-3 8-3q8-1 8 6t-4 11q7 0 2 10-2 4-5 5-6 2-15-3-4-2 2-4-1 0-6-6t-9-10-9 3q0 0-3 7t-5 8q-5 0-9-9 1 5-6 9t-14 4q11 7-4 15-4 3-12 3t-11-2q-2-4-3-7t3-4 6-3 6-2 5-2q8-6 5-8-1 0-5-2t-6-2-4-2q-1-3 0-8t-1-8q-3 3-5 10t-4 9q4-5-14-3l-5 0q-3 0-9-1t-12-1-7 5q-3 4 0 11 0 2 2 1-2 2-6 5t-6 5q-25-8-52-23 3 0 6 1 3 1 8 4t5 3q19 7 24 4l3 2q7-9 11-14-4 3-17 1-11-3-12-7 4-6 2-10-2 2-6 6t-8 6-8 3q-9 0-13-1-81-45-131-124 4-4 7-4 2-1 3-5t1-6 6 1q5-4 2-10 1 0 25-15 10-10 11-12 2-6-5-10-1 1-5 5t-5 2q-2-3 0-10t6-7q-4 0-5-9t-2-20 0-13l1-1q-2-6 3-19t12-11q-7-1 11-24 3-4 4-5 2-1 7-4t9-6 5-5q2-3 6-13t8-13q-2-3 5-11t6-13q-1 0-2-1t-1 0q2-4 9-8t8-7q1-2 1-6t2-6 4-1q2 11-13 35-8 13-9 16-2 2-4 8t-2 8q1 0 3 0t5-2 4-3 1-1q-1-4 1-10t7-10 10-11 6-7q4-4 8-11t0-8q5 0 11-5t10-11q3-5 4-15t3-13q1-4 5-8t7-5l9-5t7-3q3-2 10-6t12-7q6-2 9-2t8 1 8 2q8 1 16-8t12-12q20-10 30-6-1 0 1-4t4-9 5-8 3-5q3-3 10-8t10-8q4 2 4 5-1-5 4-11t10-6q8 2 8 18-17-8-27 10 0 0-2 3t-2 5-1 4 0 5 2 1q5 0 6 2t-1 7-2 8q-1 4-6 11t-7 8q-3-5-9-4t-9 5q0-1-1-3t-1-4q-7 0-8 0 1 2 1 10t2 13q1 2 3 6t5 9 2 7-3 5-9 1q-11 0-15-11-1-2-2-6t-2-6-5-4q-4-2-14-1t-13 3q-8 4-13 16t-5 20q0 6 1 15t2 14-3 14q2 1 5 5t5 6q2 1 3 1t3 0 2 1 1 3q0 1-2 2-1 1-2 1 4-1 16 1t15-1q9-6 12 1 0 1-1 6t0 7q3-15 16-5 2-1 9-3t9-2q2-1 4-3t3-3 3 0 5 4q5-8 7-13 6-23 10-25 4-2 6-1t3 5 0 8-1 7l-1 5v10l0 4q-8 2-10 7t0 10 9 10q0 1 4 2t9 4 7 4q12 11 8 20 4 0 6 5 0 0-2 2t-5 2-2 2q5 2 1 8 3 2 4 7t4 5q5-6 12-1 5 5 1 9 2 4 11 6t10 5q4-1 5 1t0 7 2 7q2 2 9 5t7 2l9 7q2 2 0 2 10-1 18 6 5 6-4 11 2 4-1 5t-9 4q2 0 7 0t5 1q9 5-3 9-10 2-24-7z m-91-490q115 21 195 106-1 2-7 2t-7 2q-10 4-13 5 1 4-1 7t-5 5-7 5-6 4q-1 1-4 3t-4 3-4 2-5 2-5-1l-2-1q-2 0-3-1t-3-2-2-1 0-2q-12 10-20 13-3 0-6 3t-6 4-6 0-6-3q-3-3-4-9t-1-7q-4 3 0 10t1 10q-1 3-6 2t-6-2-7-5-5-3-4-3-5-5q-2-2-4-6t-2-6q-1 2-7 3t-5 3q1-5 2-19t3-22q4-17-7-26-15-14-16-23-2-12 7-14 0-4-5-12t-4-12q0-3 2-9z" horiz-adv-x="857.1" />

<glyph glyph-name="trophy" unicode="&#xe819;" d="M256 357q-42 91-42 207h-143v-53q0-44 53-91t132-63z m601 154v53h-143q0-116-41-207 79 16 131 63t53 91z m72 71v-71q0-40-24-80t-62-73-97-54-120-25q-23-30-53-53-21-19-29-40t-8-50q0-30 17-51t54-21q42 0 75-25t32-64v-36q0-8-5-13t-13-5h-464q-8 0-13 5t-5 13v36q0 39 33 64t74 25q38 0 55 21t17 51q0 28-8 50t-29 40q-30 23-53 53-64 3-121 25t-96 54-63 73-23 80v71q0 23 16 38t38 16h160v53q0 37 27 63t63 27h321q37 0 63-27t26-63v-53h161q22 0 38-16t16-38z" horiz-adv-x="928.6" />

<glyph glyph-name="ban" unicode="&#xe81a;" d="M732 352q0 90-48 164l-421-420q76-50 166-50 62 0 118 25t96 65 65 97 24 119z m-557-167l421 421q-75 50-167 50-83 0-153-40t-110-111-41-153q0-91 50-167z m682 167q0-88-34-168t-91-137-137-92-166-34-167 34-137 92-91 137-34 168 34 167 91 137 137 91 167 34 166-34 137-91 91-137 34-167z" horiz-adv-x="857.1" />

<glyph glyph-name="comments" unicode="&#xe81b;" d="M786 421q0-77-53-143t-143-104-197-38q-48 0-98 9-70-49-155-72-21-5-48-9h-2q-6 0-12 5t-6 12q-1 1-1 3t1 4 1 3l1 3t2 3 2 3 3 3 2 2q3 3 13 14t15 16 12 17 14 21 11 25q-69 40-108 98t-40 125q0 78 53 144t143 104 197 38 197-38 143-104 53-144z m214-142q0-67-40-126t-108-98q5-14 11-25t14-21 13-16 14-17 13-14q0 0 2-2t3-3 2-3 2-3l1-3t1-3 1-4-1-3q-2-8-7-13t-12-4q-28 4-48 9-86 23-156 72-50-9-98-9-151 0-263 74 32-3 49-3 90 0 172 25t148 72q69 52 107 119t37 141q0 43-13 85 72-39 114-99t42-128z" horiz-adv-x="1000" />

<glyph glyph-name="random" unicode="&#xe81c;" d="M372 582q-34-52-77-153-12 25-20 41t-23 35-28 32-36 19-45 8h-125q-8 0-13 5t-5 13v107q0 8 5 13t13 5h125q139 0 229-125z m628-446q0-8-5-13l-179-179q-5-5-12-5-8 0-13 6t-5 12v107q-18 0-48 0t-45-1-41 1-39 3-36 6-35 10-32 16-33 22-31 30-31 39q33 52 76 152 12-25 20-40t23-36 28-31 35-20 46-8h143v107q0 8 5 13t13 5q6 0 13-5l178-178q5-5 5-13z m0 500q0-8-5-13l-179-179q-5-5-12-5-8 0-13 6t-5 12v107h-143q-27 0-49-8t-38-25-29-34-25-44q-18-34-43-95-16-37-28-62t-30-59-36-55-41-47-50-38-60-23-71-10h-125q-8 0-13 5t-5 13v107q0 8 5 13t13 5h125q27 0 48 9t39 25 28 34 26 43q17 35 43 96 16 36 28 62t30 58 36 56 41 46 50 39 59 23 72 9h143v107q0 8 5 13t13 5q6 0 13-5l178-178q5-5 5-13z" horiz-adv-x="1000" />

<glyph glyph-name="resize-full" unicode="&#xe81d;" d="M839 55l72 72 0-224-223 0 72 72-184 185 79 79z m-749 591l-72-72 0 223 223 0-72-72 184-184-79-79z m670 79l-72 72 223 0 0-223-72 72-184-184-79 79z m-407-565l-184-185 72-72-223 0 0 224 72-72 184 184z" horiz-adv-x="928" />

<glyph glyph-name="bolt" unicode="&#xe81e;" d="M494 534q10-11 4-24l-302-646q-7-14-23-14-2 0-8 1-9 3-14 11t-3 16l110 451-226-56q-2-1-7-1-10 0-17 7-10 8-7 21l112 461q2 8 9 13t15 5h183q11 0 18-7t7-17q0-4-2-10l-96-258 221 54q5 2 7 2 11 0 19-9z" horiz-adv-x="500" />

<glyph glyph-name="repeat" unicode="&#xe81f;" d="M857 707v-250q0-14-10-25t-26-11h-250q-23 0-32 23-10 22 7 38l77 77q-82 77-194 77-58 0-111-23t-91-61-61-91-23-111 23-111 61-91 91-61 111-23q66 0 125 29t100 82q4 6 13 7 8 0 14-5l76-77q5-4 6-11t-5-13q-60-74-147-114t-182-41q-87 0-167 34t-136 92-92 137-34 166 34 166 92 137 136 92 167 34q82 0 158-31t137-88l72 72q17 18 39 8 22-9 22-33z" horiz-adv-x="857.1" />

<glyph glyph-name="credit-card" unicode="&#xe820;" d="M982 779q37 0 63-27t26-63v-678q0-37-26-63t-63-27h-893q-36 0-63 27t-26 63v678q0 37 26 63t63 27h893z m-893-72q-7 0-12-5t-6-13v-125h929v125q0 8-5 13t-13 5h-893z m893-714q7 0 13 5t5 13v339h-929v-339q0-7 6-13t12-5h893z m-839 71v72h143v-72h-143z m214 0v72h214v-72h-214z" horiz-adv-x="1071.4" />

<glyph glyph-name="check-circle-o" unicode="&#xe821;" d="M654 396l-236-235q-11-11-25-11t-25 11l-164 164q-11 11-11 25t11 25l57 57q10 11 25 11t25-11l82-82 153 154q11 10 25 10t26-10l57-57q10-11 10-26t-10-25z m78-46q0 83-41 152t-110 111-152 41-153-41-110-111-41-152 41-152 110-111 153-41 152 41 110 111 41 152z m125 0q0-117-57-215t-156-156-215-58-216 58-155 156-58 215 58 215 155 156 216 58 215-58 156-156 57-215z" horiz-adv-x="857.1" />

<glyph glyph-name="keno" unicode="&#xe822;" d="M981 850q5 0 8-2t8-4q2-3 3-7t0-8v-960q0-5-2-8t-4-8q-3-2-7-4t-8-2h-957q-4 0-8 2t-8 4l-4 10t-2 12v954q0 3 2 7t4 8q3 2 7 4t9 2h959v0z m-650-440v149q0 5-2 9t-4 7q-5 3-8 3t-7 1h-222q-5 0-9-2t-7-5q-3-2-5-5t-2-8v-149q0-5 2-10t5-6q2-3 7-5t9-2h222q5 0 7 2t8 5q2 2 4 6t2 10v0z m0-238v150q0 5-2 9t-4 6q-3 3-7 5t-8 2h-222q-5 0-9-2t-7-5q-3-2-5-6t-2-9v-150q0-5 2-9t5-6q2-3 7-5t9-2h222q5 0 7 2t8 5q2 2 4 6t2 9z m0-234v149q0 5-2 10t-4 6q-3 3-7 5t-8 2h-222q-5 0-9-2t-7-5q-3-2-5-6t-2-10v-149q0-5 2-9t5-7q2-3 7-5t9-2h222q5 0 7 2t8 5q2 2 4 7t2 9z m-193 852v-162h37v56l13 16 37-72h41l-53 94 56 71h-44l-37-55q0-3-2-5t-4-5l-7-6v71h-37v-3z m59-612v3h28v28h15v22h-15v75h-37l-47-78v-22h56q0 2 0-13v-15z m37-106h-87v-25h56l-50-100h35l49 109q-2-2-2 7z m-46 453v-100h31v125h-29l-31-15 10-23 19 13v0z m9-290h-28l16 27q2 3 3 7t2 6q3 3 4 7t3 6v-53 0z m150 555v-159h106v32h-68v37h55v28h-55v34h62v28h-100v0z m288-380v149q0 5-2 9t-5 7q-2 3-6 5t-10 1h-218q-5 0-9-1t-7-5q-2-4-4-8t-2-8v-149q0-5 2-10t4-6q3-3 7-5t9-2h221q5 0 10 2t6 5q3 2 3 6t1 10v0z m0-238v150q0 5-2 9t-5 6q-2 3-6 5t-10 2h-218q-5 0-9-2t-7-5q-2-2-4-6t-2-9v-150q0-5 2-9t4-6q3-3 7-5t9-2h221q5 0 10 2t6 5q3 2 3 6t1 9v0z m0-234v149q0 5-2 10t-5 6q-2 3-6 5t-10 2h-218q-5 0-9-2t-7-5q-2-2-4-6t-2-10v-149q0-5 2-9t4-7q3-3 7-5t9-2h221q5 0 10 2t6 5q3 2 3 7t1 9v0z m-185 40q0-7 3-12t10-13q7-7 16-8t21-1 20 3 14 9q7 5 11 12t5 17q0 7-3 11t-6 10q-5 5-8 8t-8 5q4 2 7 6t5 7q3 2 4 6t0 9q0 7-2 12t-8 10-13 7-18 3-17-3-14-10q-7-5-10-12t-3-16q0-5 1-10t2-6q3-5 5-7t8-6q-5-2-8-6t-8-7q-2-2-4-6t-2-12v0z m6 447h88v25h-44l13 9q7 5 13 12t11 14q5 7 7 13t3 14q0 8-3 14t-10 12-14 8-20 4q-7 0-12 0t-13-3q-4-3-9-5t-7-4l10-22 4 4t6 5q2 3 6 3h9q7 0 11-2t5-4q2-2 2-5t1-8q0-7-3-12t-7-12q-5-8-13-15t-18-16l-16-16q0 2 0-5v-8 0z m81-140v24h-68l-10-65h16q11 0 19-2t12-4q5-3 7-7t3-9q0-7-3-11t-7-5q-4-2-9-2h-10-8-7q-5 0-8 1t-5 1l-3-22q3-2 5-3l8-3t10-2 11-1q8 0 21 3t20 10q7 7 12 14t4 17q0 7-2 11t-4 8q-3 2-5 6t-8 6q-3 2-6 3t-9 3-10 3-9 0h-7l3 23 47 3v0z m-18-307q0-2-2-5t-4-8q-3-2-7-4t-9-2q-3 0-7 2t-6 4q-2 3-3 6t-2 7 2 9 3 4q2 2 5 4t8 5q5-3 8-5t8-4q2 0 4-4t2-9z m-35 60q0 2 1 4t2 8q3 2 5 4t5 2q5 0 7-2t6-4q2-3 2-5t1-7q0-2-1-5t-2-8q-3-2-6-4t-4-2q-2 2-5 3t-8 3q0 5-1 8t-2 5z m163 590h-3v162h-35v-46-18-17t1-15 2-16q-2 7-4 14t-4 14q-5 7-8 14t-5 15l-34 55h-41v-162h34v122q3-7 7-16t8-15q5-8 8-14t8-14l34-63h32z m291-218v149q0 5-2 9t-4 7q-3 3-8 5t-8 1h-223q-3 0-7-1t-8-5q-2-2-4-7t-2-9v-149q0-5 2-10t4-6q3-3 7-5t8-2h223q4 0 8 2t8 5q2 2 4 6t2 10v0z m0-238v150q0 5-2 9t-4 6q-3 3-8 5t-8 2h-223q-3 0-7-2t-8-5q-2-2-4-6t-2-9v-150q0-5 2-9t4-6q3-3 7-5t8-2h223q4 0 8 2t8 5q2 2 4 6t2 9v0z m0-234v149q0 5-2 10t-4 6q-3 3-8 5t-8 2h-223q-3 0-7-2t-8-5q-2-2-4-6t-2-10v-149q0-5 2-9t4-7q3-3 7-5t8-2h223q4 0 8 2t8 5q2 2 4 7t2 9v0z m-147 852q-17 0-31-4t-26-17-16-26-5-34q0-16 5-30t16-26q10-12 24-18t33-7q16 0 30 5t26 17 17 27 5 35q0 17-5 31t-14 26q-12 12-26 17t-33 4z m43-502h-3v15h-13q-6 0-13 0t-14-3q-8-3-13-5t-9-7-9-10-7-12q-2-8-4-15t-2-16q0-12 3-22t10-16q7-7 16-12t21-4q10 0 17 3t14 10 10 14 3 17-3 17-10 14q-5 7-12 10t-16 3h-6-7q-4 0-6-2t-3-8q2 5 5 10t8 9q4 5 11 8t16 4h7q2-1 6-2l3 0v0z m-43 372q-10 0-17 4t-11 11-9 16-1 21q0 12 2 21t8 17q5 7 11 12t17 4q9 0 16-4t11-12q5-7 8-18t2-20q0-11-2-21t-8-16q-3-10-11-12t-16-3z m-25-695v-21h12q7 0 14 0t15 3q7 3 11 5t10 7 8 12 8 14q2 7 4 15t2 19q0 12-2 21t-7 16-14 11-20 5q-10 0-17-3t-15-10q-7-7-10-14t-2-17q0-7 2-13t10-12q4-5 12-7t16-2q5 0 9 0t6 2q3 3 6 4t4 3q-2-5-3-9t-3-6q-3-3-5-5t-4-5q-2-2-6-3t-7-3q-2-3-6-3h-7-6l-15-4v0z m-3 489v-29q2-3 6-3t9-4q5-2 10-2t12-1 17 3 17 10q8 5 12 12t4 16q0 7-2 11t-7 8-10 7-13 3q8 2 13 5t7 7q2 2 4 7t2 8q0 8-3 14t-10 12-14 7-17 2q-7 0-12 0t-10-4q-5-2-9-3t-6-2l3-22q2 2 4 3t5 3q4 2 8 2t8 1q4 0 7-1t5-2q3-2 3-4t1-6q0-2-2-4t-5-5q-5-3-8-3h-8-12v-22h12q5 0 10-1t9-2q5-2 7-5t3-8q0-2-2-5t-4-7q-3-2-8-4t-12-2q-4 0-8 0t-7 3q-4 3-7 5l-2 2v0z m55-232v-9t-3-7q-1-2-4-4t-8-5q-4 0-8 2t-8 7q-2 5-4 10t-2 9v0 3q2 3 3 6t3 4q3 2 6 2t4 1q7 0 10-2t6-4q4-3 5-6t0-7v0z m-37-194q0 5 2 9t4 6q3 3 6 5t7 2 8-2 5-8 2-9 0-9v-10q-1-2-2-4t-3-2q-3-2-5-2t-5-1q-5 0-9 2t-4 4q-4 7-5 11t-1 8v0z" horiz-adv-x="1000" />

<glyph glyph-name="video-slot" unicode="&#xe823;" d="M675 413q0 2 2 3t5 2h27q8 0 6-3t-6-15l-78-134h57l90 159v34h-128q-9 0-14-4t-5-14v-38h44v5 5 0z m-266 0q0 2 2 3t5 2h27q8 0 7-3t-7-15l-78-134h54l91 159v34h-125q-10 0-15-4t-5-14v-38h44v10 0z m-262 0q0 2 1 3t5 2h29q7 0 5-3t-5-15l-78-134h52l91 159v34h-128q-10 0-14-4t-5-14v-38h44q3-2 3 4v6z m800 275q-21 0-37-15t-16-39q0-16 10-29t24-18v-184h-59v194q0 19-14 33t-33 14h-50v24q0 29-20 48t-49 19h-541q-27 0-48-20t-20-47v-24h-47q-19 0-33-14t-14-33v-463q0-18 14-32t33-15h47v-52q0-29 20-47t48-19h541q28 0 49 20t20 46v52h50q19 0 33 15t14 32v125h97v328q14 7 24 21t10 29q0 22-16 36t-37 15v0z m-666-544h-218v437h218v-68-150-151-68z m266 0h-219v437h219v-437z m263 0h-219v437h219v-437z" horiz-adv-x="1000" />

<glyph glyph-name="baccara" unicode="&#xe824;" d="M810-50q2-7 4-14t1-11v0q3 7 4 14t3 11l9 35h-34l13-35v0z m-382 660v0q-2-8-3-14t-3-12l-10-34h35l-9 34q-5 5-8 12t-2 14v0z m400 74h-78l-6 54q-5 25-17 48t-34 36q-20 16-45 22t-51 3l-407-59q-28-2-50-16t-36-34q-17-22-24-47t-2-50l91-635q5-25 19-48t34-40q16-11 37-18t41-6h10 8l16 3q12-22 34-34t48-13h412q40 0 69 28t28 69v640q-2 40-29 69t-68 28v0z m-521-722q-12-2-25 2t-22 11q-10 7-17 18t-9 23l-90 634q-2 12 2 25t10 22q7 9 18 16t23 9l407 60q11 2 24-2t22-11q9-7 16-18t9-23l7-44h-266q-40 0-69-28t-29-69v-625h-11z m140 570h-44l-12-38h-26l44 137h31l44-137h-28l-9 38v0z m181-442q0-2-2-4t-4-2h0-3q-3 0-5 1t-2 2v1 2q-5 12-40 66t-100 103q-2 0-4 3t-2 7v0 3 3q0 3 1 3h2q10 8 55 48t88 118q0 2 3 4t7 2h3 0q2 0 2-2t1-4q5-7 39-63t102-106l1-2 2-1v-2-4q0-3-2-5t-4-5q-5-7-51-47t-87-119v0z m203-187h-31l-44 137h28l13-37h44l13 37h24l-47-137v0z" horiz-adv-x="1000" />

<glyph glyph-name="blackjack" unicode="&#xe825;" d="M769 850h-538q-46 0-81-34t-35-81v-770q0-49 35-82t81-33h538q49 0 83 34t33 81v770q0 47-35 81t-81 34z m-519-940v0l-34 27t-34 57q0 16 9 27t25 11q7 0 15-4t13-9l-4 16t-11 31q0 2 21 2t22-2q-7-17-12-32l-4-15q5 5 13 9t15 4q17 0 26-10t8-26q3-30-32-58l-36-28v0z m240 243h-268v51q18 15 35 32t34 33q16 17 28 29t25 27q12 14 19 27t15 23 10 22 3 21q0 15-5 26t-11 18q-10 5-19 9t-25 4q-9 0-18-4t-19-9q-7-5-16-11t-15-17l-47 47q14 15 28 26t31 21q14 8 32 12t37 3q13 0 27-2t26-6 21-12l20-14t15-17 10-20q4-12 6-24t3-26q0-11-3-24t-6-26q-5-12-12-25t-16-25q-10-12-20-25t-21-25-24-25-23-25q7 0 15 2t16 1h17 14 78z m313 0h-243v72h84v222h-72v53q16 2 29 7t24 9q12 4 22 9t22 13h65v-313h73v-72h-4z m0 522q-7 0-15 4t-13 9l4-17t12-30q0-3-22-3t-22 3q7 16 11 31l5 16q-5-5-13-9t-16-4q-16 0-25 9t-9 25q0 29 34 57l35 27v0l34-27t35-57q0-13-10-24t-25-10z" horiz-adv-x="1000" />

<glyph glyph-name="bingo" unicode="&#xe826;" d="M1124 676c-4-22-8-43-11-64-29-174-59-349-88-523-10-61-21-121-31-182-6-41-30-58-69-51-193 36-386 71-579 107-31 6-49 33-44 67 26 159 53 319 80 478 16 97 32 195 49 292 6 37 30 55 66 49 72-13 144-27 216-40 101-19 202-37 304-57 20-3 39-7 59-11 26-4 41-21 48-46 0-6 0-13 0-19z m-782-654c-1-10 4-14 12-15 16-3 31-7 47-9 138-26 277-52 415-78 40-7 80-14 121-22 9-2 14 2 15 11 1 4 1 7 2 10 26 154 51 308 78 462 16 98 33 198 49 296 3 14 0 17-14 20-93 17-186 35-279 52-100 18-200 37-299 56-11 1-15-1-17-13-14-81-27-163-41-245-24-142-48-285-72-427-5-33-11-66-17-98z m-342 670c1 2 2 3 3 5 6 22 21 36 43 40 119 21 237 43 355 66 1 0 2 0 3 0-2-14-4-29-7-43 0-2-5-3-8-4-46-9-93-18-139-26-65-12-129-24-194-36-12-2-15-6-12-20 17-102 34-204 51-306 25-147 49-293 74-440 1-7 2-14 4-21 1-10 6-14 16-11 31 5 62 11 92 17 30 6 60 12 89 17 3 1 6 1 9 0 36-7 72-13 108-20 1 0 2-1 5-3-41-7-79-14-117-21-59-12-119-22-178-33-2 0-4-2-5-3-6 0-12 0-18 0-28 9-40 29-45 58-17 107-36 214-54 321-21 126-42 253-63 379-4 22-8 43-12 64 0 7 0 13 0 20z m117-299c31 5 60 11 91 16 4-31 10-63 15-95-30-5-59-11-90-16-6 32-11 63-16 95z m202 66c-30-5-59-11-90-16-5 32-11 63-16 95 30 5 60 11 90 16 5-31 11-62 16-95z m-222 57c30 6 60 11 90 16 5-32 11-62 16-94-30-6-60-12-91-17-5 31-10 63-15 95z m40-246c31 6 60 11 90 16 5-32 11-62 16-94-31-6-59-12-90-17-5 31-10 63-16 95z m148-324c-30-7-60-12-90-17-5 31-11 63-16 95 31 5 60 11 91 16 4-32 9-62 15-94z m-111 106c-4 32-10 62-15 94 30 6 59 12 90 17 5-31 11-63 16-95-30-5-60-10-91-16z m60 362c31 6 60 12 89 17 9-31 12-61 4-92-1-2-4-6-6-6-23-5-47-9-71-14-5 33-10 63-16 95z m-55 221c3-2 5-3 6-3 9-3 17-9 18-20 2-13-2-24-12-31-6-4-13-7-21-9-17-3-35-7-53-9-3-1-7 2-11 2 1 4 2 7 2 11 1 4 3 9 3 14-2 17-3 35-7 52-1 4-6 9-9 13-2 2-5 4-5 5 0 3 3 5 4 7 2 2 4 2 7 3 17 3 35 7 53 9 5 1 10 1 15 0 16-2 24-20 15-35-2-4-3-5-5-9z m-25-16c-2 0-3 0-4 0-2-4-5-7-6-10 0-6 2-11 3-17 3-7 8-9 14-5 6 5 5 13 3 19-3 5-7 9-10 13z m1 24c-3 6-4 11-6 15-2 2-7 3-9 2-2 0-4-5-3-8 0-5 2-10 3-16 1-6 5-7 9-4 2 3 4 7 6 11z m216-33c-18 11-35 23-53 34-3 2-8 2-12 4-1-4-2-9-2-14 1-9 3-16 12-21 6-2 4-10 0-12-10-3-22-6-32-6-6 0-8 6-3 13 3 4 4 9 4 13-2 17-5 34-9 51-1 4-6 9-11 12-6 4-7 10 0 14 13 6 25 11 39 1 13-8 25-16 37-24 4-2 7-3 11-4 4 13 1 21-9 28-6 5-7 12 1 13 9 4 20 6 30 6 7 0 9-6 5-13-3-5-4-10-5-15-1-4 0-8 1-12 4-22 3-45-4-68z m-116-318c22 4 43 7 66 12-4-25-8-49-12-72-1-10-1-22-7-28-5-5-18-4-27-6-1 0-2 0-5-1-5 31-10 62-15 95z m-15 403c3-1 6 0 10-2 5-2 7-7 2-11-6-5-6-11-5-17 3-16 5-32 8-46 1-5 5-10 10-14 5-4 7-11 0-13-14-4-29-7-44-9-8-1-9 5-5 12 1 4 4 8 3 12-2 18-5 35-8 52-1 5-5 9-9 12-7 5-8 10 1 14 11 5 24 7 36 11 1 1 1 0 1-1z m106-228c-5 31-10 60-16 92 11 2 21 5 34 6-6-33-11-66-17-98 0 0-1 0-1 0z m-48-294c-4-24-7-45-10-67-1 0-1 0-2 0-3 20-7 41-11 63 8 1 15 2 23 4z m89-42c30-6 60-11 90-17-5-32-11-62-16-94-29 5-59 11-90 16 6 31 11 63 16 95z m508 315c-30 6-59 12-90 17 5 31 11 63 16 95 30-6 59-12 90-17-6-32-11-62-16-95z m1-156c31-6 60-11 90-17-5-32-11-62-16-94-29 5-59 11-90 16 6 31 11 63 16 95z m-26 5c-6-32-11-62-16-95-30 6-60 12-90 17 5 32 11 62 16 95 30-6 59-12 90-17z m-86 44c5 33 11 63 16 95 30-5 60-11 90-16-5-32-10-63-15-95-31 6-60 11-91 16z m-143 27c-31 7-60 12-90 17 5 31 10 63 15 95 30-6 60-12 90-17-5-31-10-62-15-95z m-118 22c-30 6-60 11-90 17 5 32 11 62 16 94 30-5 59-11 90-16-5-32-11-63-16-95z m443-238c-5-31-10-63-15-95-30 5-60 12-90 17 5 31 10 62 15 94 30-5 60-10 90-16z m-462-41c31-5 60-11 90-16-5-32-10-63-15-95-30 5-60 11-90 16 5 32 9 63 15 95z m56 497c-6-32-11-63-16-94-31 5-60 11-90 16 5 32 11 63 16 95 30-6 59-11 90-17z m218-138c-31 5-60 11-90 17 5 32 11 62 15 94 31-5 60-11 91-16-5-32-10-63-16-95z m-269-331c5 32 11 63 16 95 31-6 59-12 90-17-5-32-11-62-16-95-30 6-59 12-90 17z m340 35c-6-32-11-64-16-95-30 5-59 11-90 16 5 32 11 63 16 95 30-5 59-10 90-16z m-223-57c6 32 11 64 15 95 31-5 60-11 91-17-5-31-11-62-16-94-30 5-59 11-90 16z m51 470c-6-33-11-64-16-95-30 5-59 11-90 16 5 33 11 63 16 95 30-6 59-11 90-16z m-57-341c-31 5-60 11-90 16 5 32 11 63 16 95 29-5 59-11 90-16-6-33-11-63-16-95z m-102 116c-5-32-10-62-15-94-30 5-60 11-90 16 4 32 10 63 15 95 31-6 61-11 90-17z m310-311c-5-32-10-63-15-95-31 5-60 12-91 17 5 31 11 62 16 95 31-6 60-12 90-17z m-330 188c-5-32-11-63-16-95-30 5-60 11-90 17 5 32 11 62 16 94 30-5 60-11 90-16z m431-304c-30 5-59 11-90 16 5 32 11 63 16 95 30-5 59-11 90-17-5-32-10-63-16-94z m-11 479c30-5 59-11 90-16-5-32-11-63-16-95-31 6-60 12-90 17 5 32 10 62 16 94z m-251-51c5 32 11 63 16 95 30-5 59-11 90-17-5-32-11-62-16-94-30 6-59 11-90 16z m44-291c-5-32-11-63-16-95-30 5-59 11-90 17 5 32 11 62 16 95 30-6 60-11 90-17z m211 371c5 32 10 63 15 95 31-6 61-11 91-17-5-32-11-62-16-94-30 5-59 10-90 16z m-335 264c2-2 2-4 4-5 8-7 13-15 10-27-3-12-10-21-22-23-6-2-13-2-19-1-19 3-37 6-55 10-4 1-7 5-11 7 3 3 5 6 7 9 2 4 6 10 7 14 3 15 6 30 9 45 1 7 2 14-5 19-6 5-4 10 2 12 3 0 6 0 8 0 16-3 33-7 48-9 4-1 7-2 9-3 10-3 19-8 20-20 2-11-3-20-11-26 1 0 0-1-1-2z m-46-29c1-2 3-7 6-8 4-1 10 1 11 4 2 7 2 14 2 22 0 3-7 5-10 5-2 0-4-5-5-7-2-6-3-10-4-16z m25 51c0 5 1 6 0 7-2 4-6 6-9 10-1-3-5-6-6-9-1-3-2-8-1-12 0-4 1-6 2-10 4 2 8 2 11 5 2 2 2 7 3 9z m136-80c1-2 2-7 5-10 5-6 2-11-4-12-11-4-23-1-32 6-5 3-5 8 1 13 4 3 8 8 9 13 3 13 5 27 7 40 1 8 1 17-7 24-5 4-2 11 5 11 14 1 28 1 38-13 9-13 18-25 28-36 2-3 5-4 8-5 1 3 4 6 5 9 1 7 2 14-4 20-5 5-3 12 4 12 10 0 19-1 29-5 8-2 7-9 0-15-4-3-8-7-9-13-4-18-6-37-10-55-1-7-5-14-9-21-5 4-11 8-15 13-11 13-21 28-32 41-2 2-6 5-9 7-2-4-4-7-6-12-1-1-1-6-2-12z m271-75c-31 0-56 25-55 55 0 32 23 55 53 55 33 0 57-26 57-60 0-29-24-50-55-50z m17 48c1 0 1 1 2 1-3 11-6 23-10 33-2 4-8 7-12 7-4 0-9-5-11-9-5-18-3-36 7-53 5-9 18-7 22 4 1 5 1 11 2 17z m-155 30c1-14 4-25 16-33 3-2 8-3 11-1 3 1 4 5 5 8 0 1-3 4-5 6-2 2-5 5-7 8 3 2 6 7 9 7 15 3 29 0 42-7 2-2 5-6 5-9 0-3-4-4-7-7-2-3-5-4-7-7-8-13-18-19-31-22-30-4-59 15-66 44-4 20 0 37 14 51 17 16 36 19 56 13 9-2 17-3 25-6 9-3 10-11 11-19 1-8-1-15-8-18-8-3-13 2-16 8-2 3-2 5-4 7-5 8-12 12-22 11-9-1-14-8-17-17-2-4-2-11-4-17z m-173-317c31-5 60-11 90-16-5-31-10-63-15-95-30 5-60 11-91 17 6 31 11 62 16 94z m13-84c15 10 28 5 39-6-5 18 4 29 18 36-8 4-16 5-20 9-4 5-5 13-8 20-1 1-1 2-2 3-5-20-18-22-34-21 16-11 13-25 7-41z m-37 496c8-1 19-4 30-7 2-1 7-6 7-8 0-2-5-5-6-8-4-4-7-9-8-13-3-15-5-30-7-44-1-7-1-13 5-19 5-4 2-11-4-12-16-2-32 0-46 8-5 3-6 7-1 12 5 4 9 9 10 15 3 14 4 28 7 42 2 7 2 15-5 22-5 5-2 9 3 11 4 1 8 1 15 1z" horiz-adv-x="1124" />

<glyph glyph-name="video-poker" unicode="&#xe827;" d="M668 385c16 2 28 16 26 32l-42 388c-2 16-17 28-33 26l-228-24c-16-2-28-16-26-33l11-104-21 22-9 81c-3 26 16 50 43 53l228 24c26 3 51-16 53-43l43-387c3-26-17-50-43-53l-87-9c6 6 10 13 14 20z m-158 150l-2 2c0 0 14 7 19 22 2 6 3 14 2 22-2-11-12-19-23-21-13-1-25 9-26 22-2 13 8 25 21 26 11 1 22-5 27-13-1 3-2 6-3 9-11 2-21 12-22 24-2 13 8 25 22 26 13 1 25-8 26-21 1-12-6-24-17-28-1-3-1-6-1-10 3 10 13 18 23 19 14 2 26-8 27-21 1-13-8-25-22-27-11-1-22 5-27 15 2-8 4-15 7-21 7-14 23-17 23-17v0l-1-2c-35 8-53-6-53-6m92 236c-7-1-14 4-15 11 0 7 5 14 12 15 6 0 12-3 14-8 0 2-1 4-1 6-6 0-12 6-13 12-1 7 5 14 12 15 7 1 14-5 15-12 0-6-4-13-10-15 0-1 0-3 0-5 1 5 6 10 12 11 7 1 14-5 15-12 1-7-5-13-12-14-5-1-12 3-14 8 1-4 1-8 3-11 4-8 13-9 13-9v0l-1-2c-18 5-28-3-28-3l-1 2c0 0 7 3 10 11 1 3 1 7 1 12-1-7-6-11-12-12m-537-211l166 156c15 15 41 14 55-1l75-77 21-23 176-182c15-16 14-41-1-55l-6-6-23-21-137-129c-16-15-41-14-56 2l-272 282c-14 15-14 40 2 54m219 127c-4 5-8 7-13 9-7 1-14 1-21 1-4-1-8-1-12-2 0 0 0 0 0-1-2-8-4-17-3-26 0-2 0-4 0-6 1-4 3-8 7-11 1-1 2-2 4-3 6-2 12-2 18 4 2 3 4 7 3 11 2-2 2-5 3-7 2-9-1-16-1-16l1-1c0 0 3 13 22 21l0 2v0c0 0-8-3-17-1-2 1-4 1-7 3 1 0 3 0 5 1 11 1 17 14 11 22m47-248c3-16-3-31-3-31l4 0c0 0 6 23 41 38l-1 3v0c0 0-15-4-31 0-5 1-9 3-13 5 3 0 5 0 8 1 20 3 30 27 18 43-5 9-13 14-23 16-13 2-26 2-39 1-8 0-15-1-22-2-1 0-1-1-1-2-4-16-6-33-5-49 0-4 0-7 1-10 0-9 5-16 11-22 2-3 5-5 8-6 12-4 23-4 34 8 5 6 7 13 7 20 3-4 5-9 6-13m7-187c4-5 8-7 13-9 7-1 14-1 21-1 4 1 8 1 12 2 0 0 1 0 1 1 1 8 3 17 2 26 0 2 0 4 0 5-1 5-3 9-6 12-2 1-3 2-5 3-6 2-12 2-18-4-2-3-4-7-3-11-1 2-2 5-3 7-2 9 2 16 2 16l-2 1c0 0-3-13-22-21l1-2v0c0 0 7 3 16 1 2-1 4-2 7-3-1 0-3 0-4 0-12-2-18-15-12-23m198-45c37-12 63-36 63-36 0 0 26 23 63 36-37 11-63 35-63 35 0 0-24-24-63-35z m63 79c-98 0-178-35-178-79 0-45 80-80 178-80 61 0 115 13 147 33-15 8-30 17-41 28-17-18-58-31-106-31-61 0-113 22-113 50 0 27 50 49 113 49 22 0 43-3 61-7 0 4-2 7-2 9-5 2-13 2-20 4-7 2-11 5-9 7 2 4 11 6 18 4 4 0 10-2 13-2 0 0 0 0 0 2l2 7c-18 4-41 6-63 6z m-6-137c15 0 32 0 47 2 7 2 15 0 18-4 2-3-1-7-9-7-17-2-33-4-50-4-2 0-6 0-7 0-8 0-15 4-13 8 0 3 7 5 14 5z m-100 24c6-3 4-7-3-9-2 0-6-2-10-2-3 0-9 0-11 2-11 7-20 15-24 22-2 4 2 8 9 8 8 1 15-2 19-4 6-6 11-11 20-17z m34 82c-13-4-24-10-34-15-3-2-7-2-11-2-3 0-5 0-9 2-6 2-7 5-4 9 11 7 26 13 41 17 7 1 15 1 20-2 6-2 4-8-3-9z m-310-93c-7 0-15-2-20-4 0 0-2 0-4 0 0 0 0 0 0 0-2 0 0 2 0 2 9 2 15 8 13 11 0 6-13 12-26 12-17 0-30-6-30-13 0-4 6-10 13-12 2 0 2-1 0-1v0c0 0-2 0-3 0-6 1-13 3-21 3-15 0-26-5-28-11-2-7 13-13 28-13 13 0 22 4 28 10 0 0 2 0 4 0-2-6-6-17-21-24h26 26c-15 7-18 20-20 25v0c2 0 3-1 3-1 4-6 15-10 28-10 17 0 30 6 28 13 4 8-9 13-24 13z m629 13c-6 2-13 4-19 6 0 0-11 3-26 9-67 26-115 66-124 103l-7-22c-13-40 51-98 144-127 95-30 180-21 193 22l6 18c-32-26-95-29-167-9z m48 98c-15 4-28 6-35 2-4 7-15 15-30 20-20 6-39 4-43-5 0-2 0-4 0-4v0c0 0-3-19 58-57 72-4 80 13 80 13v0c0 0 1 1 1 3 2 10-13 22-31 28z m-17 65c-94 29-180 20-193-21-13-40 52-99 145-129 95-30 180-20 193 20 15 43-50 100-145 130z m-133 3c13 4 28 4 44 4 8 0 15-4 19-7 3-4 0-8-8-8-13 0-26 0-37-3-3 0-7 0-11 1-4 0-5 2-7 4-6 4-6 9 0 9z m-8-85c-2 0-5 0-9 2-4 2-7 4-11 6-9 9-15 20-17 29-2 4 4 6 11 4 8-2 15-6 15-9 2-8 8-15 13-24 8-6 6-8-2-8z m145-72c-17 2-32 8-48 11-2 0-4 2-8 2-7 2-13 8-11 11 2 4 9 4 17 2 15-5 30-9 44-11 8-2 15-5 17-9 0-6-4-7-11-6z m80 45c-10-26-63-32-123-13-59 18-100 55-91 81 10 26 63 31 123 13 57-19 100-55 91-81z m-8 48c-3 2-5 2-7 3-11 8-22 15-37 23-8 3-10 7-6 11 4 1 11 1 19-2 16-8 31-17 44-26 6-4 6-7 0-9-5-2-9 0-13 0z m54-63v0c-2-9-9-15-17-20-3-2-9-2-14 0-2 0-4 1-6 1-7 4-9 8-6 12 8 3 13 9 15 16v0c2 4 8 4 15 2 7-2 13-7 13-11z m-389-92c-6 0-13 0-21-2 0 0-11 0-28 2-72 5-129 27-150 61v-25c0-42 80-77 178-77 91 0 163 29 176 68-7 4-14 6-20 9-30-20-78-35-135-36z m-130-65c-99 0-178-35-178-80 0-44 79-79 178-79 98 0 178 35 178 79 0 45-80 80-178 80z m31-17c2 4 11 6 19 4 18-2 35-7 50-11 5-2 7-6 2-9-4-2-8-2-11-2-4 0-6 0-10 2-13 3-26 7-40 9-8 0-12 4-10 7z m-159-22c11 8 26 13 41 17 7 2 14 2 20-2 4-4 2-7-4-9-13-4-24-10-33-15-4 2-9 0-13 0-4 0-6 0-9 2-6 2-8 5-2 7z m20-83c-2 0-5-2-9-2-4 0-9 0-11 2-11 7-21 15-24 22-2 4 2 7 9 7 7 2 15-1 19-3 3-8 11-13 20-19 4-2 2-5-4-7z m158-24c-17-2-34-4-50-4-2 0-6 0-8 0-7 0-14 4-13 8 0 3 8 5 15 5 15 0 32 0 47 2 7 2 14 0 18-4 2-3-2-7-9-7z m-50 17c-61 0-113 22-113 49 0 28 50 50 113 50 61 0 113-22 113-50 0-27-50-49-113-49z m161 49c0-9-4-16-11-24-2-1-7-3-13-3-2 0-4 0-6 0-7 2-11 5-7 7 6 7 9 13 9 20v0c0 4 6 6 15 6 8 2 13-2 13-6z m-143-86c-5 0-13 0-20-2 0 0-11 0-28 2-72 5-130 27-150 61v-24c0-43 78-78 176-78 98 0 176 35 176 79v21c-18-32-78-56-154-59z m-150 214v20c-22-31-83-55-158-59-5 0-13 0-20-2 0 0-11 0-28 2-72 6-130 28-150 61v-24c0-44 78-77 178-77 100 0 178 36 178 79z m197-131v0c0 0-2 16-65 33-63-17-65-33-65-33v0c0 0 0 0 0-2 0-9 15-15 35-15 9 0 17 2 22 6-1-6-7-11-16-17h52c-10 6-15 11-17 17 5-2 15-4 22-4 17 0 34 5 32 15 2 0 2 0 0 0z m-373 258c-98 0-178-35-178-79 0-44 80-79 178-79 98 0 178 35 178 79 0 44-80 79-178 79z m31-14c2 3 12 5 19 3 19-2 35-7 50-11 6-2 7-5 2-9-4-2-7-2-11-2-4 0-6 0-9 2-13 4-26 7-41 9-8 0-13 4-10 8z m-161-23c11 8 26 13 41 17 7 2 15 2 20-2 4-3 2-7-3-9-13-4-24-9-34-15-3-2-7-2-11-2-4 0-5 0-9 2-6 2-8 6-4 9z m21-85c-2 0-6-1-10-1-3 0-9 0-11 1-11 8-20 15-24 23-2 3 2 7 9 7 8 2 15-2 19-4 4-7 11-13 20-18 6 0 4-6-3-8z m159-24c-17-1-33-3-50-3-2 0-6 0-7 0-8 0-15 3-13 7 0 4 7 6 14 6 15 0 32 0 47 2 7 1 15 0 18-4 2-2-2-6-9-8z m-50 19c-61 0-113 22-113 50 0 28 50 50 113 50 61 0 113-22 113-50 0-28-50-50-113-50z m161 48c0-9-3-17-11-24-2-2-7-4-15-4-2 0-3 0-5 0-8 2-11 6-10 8 6 7 8 13 8 20v0c0 4 7 5 15 5 11 2 18 0 18-5z" horiz-adv-x="1024" />

<glyph glyph-name="scratch" unicode="&#xe828;" d="M405 571l-12-39h24z m-94-3q0 9-3 12t-8 3h-25v-30h25q6 0 8 3t3 12v0z m-51-189q0 26-5 32t-18 6-17-5-5-33q0-22 4-29t18-7q13 0 18 7t5 29z m709-333h-168v233h153q3 7 6 14t4 14h-163v233h232v-123q8 9 16 18t17 15v90h233v-11q9 0 17-1t17-1v13h232v-148q18-24 32-52t24-56v529q0 15-11 26t-27 11h-1546q-14 0-26-11t-11-26v-779q0-16 11-27t26-12h958q-8 13-14 26t-12 25v0z m364 753h232v-231h-232v231z m-267 0h233v-231h-233v231z m-265 0h232v-231h-232v231z m-201-289q13 0 25 1l11 1v-21q-8-3-18-5t-26 0q-24 0-33 16t-9 46 9 47 33 17q15 0 25-2t19-5v-22l-12 2t-24 1q-12 0-17-5t-6-33q0-20 5-29t18-9v0z m-60 206l12 36 12-36h38l-31-22 12-36-31 22-31-22 11 36-30 22h38v0z m-90-106h94v-26h-34v-97h-28v97h-32v26 0z m91-288h-27v124h27v-124z m-172 124l25-88 19 88h29l-7-30 18-58 20 88h29l-32-124h-33l-14 47-13-47h-33l-37 124h29v0z m-20 41l40 123h32l39-123h-28l-9 24h-37l-8-24h-29v0z m35 266l12 37 11-37h38l-31-22 13-36-31 22-32-22 12 36-30 22h38v0z m-46-182q0-23-6-29t-13-7l23-48h-31l-19 45-16 3v-48h-28v123h55q15 0 25-8t10-31v0z m-110 145l11 36 12-36h38l-31-22 12-36-31 22-31-22 12 36-30 22h38v0z m-36-104q16 0 25-2t19-5v-22l-11 2t-25 1q-11 0-17-5t-5-33q0-20 4-29t18-9 25 1l11 1v-21q-7-3-18-5t-26 0q-23 0-32 16t-10 46 9 47 33 17v0z m-90-78h-18q-23 0-28 13t-5 21v11q0 18 10 25t24 7q16 1 28-1t22-4v-22q-9 1-22 2t-19 0q-8 0-11-1t-4-9v-4q0-6 3-8t9-2h17q20 0 25-12t6-22v-8q0-22-11-28t-23-7q-19 0-29 1t-21 5v21q6-1 19-1t25-1q5 0 8 2t4 7v5q0 5-2 7t-7 3v0z m78-114h-33v-98h-28v98h-33v26h94v-26 0z m8-37q0 43 14 53t35 11q23 0 37-11t14-53q0-41-14-51t-37-10q-22 0-36 9t-13 52v0z m373-318h-330v38h330v-38z m0 80h-330v37h330v-37z m0 79h-330v37h330v-37z m95 98h-28l-43 71v-71h-27v124h27l43-73v73h28v-124 0z m41 4q0-2-1-3t-3-1h-16q-2 0-3 1t-1 3v17q0 2 1 3t3 1h16q2 0 3-1t1-3v-17z m-1 29h-21l-3 91h27l-3-91v0z m44 132h-27v47h-36v-47h-29v123h29v-51h36v51h27v-123z m542 16q-62 0-117-24t-97-64-65-97-23-117q0-64 23-119t65-96 97-65 117-24 118 24 97 65 65 96 23 119q0 62-23 117t-65 97-97 64-118 24v0z m116-433q-14-14-36-22t-50-11v-53h-57v53q-22 1-38 3t-29 6q-13 3-23 7l-19 6v87h96q0-6 2-11t3-9q3-3 8-4t15-1q6 0 12 1t8 2q3 3 4 6t2 8q0 3-1 6t-4 5-8 5-12 6q-16 5-31 11t-26 12-22 12-18 12q-9 7-15 16t-10 17-5 20-2 24q0 10 1 20t5 19 7 16 12 15q6 7 15 12t19 10q11 4 24 7t30 4v51h57v-50q10 0 20-1t17-3 15-3 13-4q7-2 13-4l11-3t11-4 7-5v-78h-92q0 6-2 10t-5 7q-4 2-7 3t-10 1q-7 0-12 0t-9-3-4-5-2-8q0-3 2-6t5-5q3-2 8-4t12-4q13-4 25-8t24-10q10-4 21-10t18-12q8-7 15-15t12-18 7-22 3-26q0-25-8-44t-22-34v0z m-116 480q-72 0-136-27t-111-75-75-111-27-136q0-74 27-137t75-112 111-75 136-27q74 0 137 27t111 75 76 112 27 137q0 72-27 136t-76 111-111 75-137 27v0z m0-675q-66 0-125 26t-104 70-70 103-25 127q0 66 25 125t70 104 104 69 125 26q68 0 127-26t103-69 69-104 25-125q0-68-25-127t-69-103-103-70-127-26z" horiz-adv-x="1632.8" />

<glyph glyph-name="craps" unicode="&#xe829;" d="M319 830l-319-156 254 9 317 167z m-30-80c-22-8-41-13-43-8-2 4 16 14 37 22 23 8 41 12 43 8 1-4-15-14-37-22z m-47-79l-237-10 143-377 237-30z m-141-134c-13-5-30 9-39 32-10 22-7 45 6 50 12 5 30-9 39-33 8-23 6-44-6-49z m83-218c-13-5-30 10-38 32-8 22-6 45 6 50 12 5 30-10 38-33 9-23 6-45-6-49z m57 214c-13-5-33 11-42 35-9 25-6 50 7 55 14 5 33-11 42-36 10-24 7-48-7-54z m79-236c-13-4-31 12-39 38-8 25-4 49 10 53 13 4 30-13 39-38 8-24 4-49-10-53z m716-33l-149-414 209 145 136 368z m-60-298c-13-24-29-40-36-36-6 4-1 25 11 49 14 23 29 39 36 35 8-4 2-25-11-48z m105 152c-13-23-28-38-35-34-6 4-2 25 10 47 12 22 28 38 35 33 7-3 2-24-10-46z m61 112c-6 4-2 25 11 47 12 22 27 38 35 33 6-4 2-24-11-46-12-22-28-37-35-34z m-516 286l65 24-106 306-325-175 139-417 154 94 67 161z m-189-183c-22 0-41 22-41 50 0 27 19 49 41 49 23 0 41-22 41-49 0-28-18-50-41-50z m114 347c-21 0-39 21-39 46 0 27 18 47 39 47 22 0 39-21 39-47 1-25-16-46-39-46z m92-196l-164-396 397-237 148 421z m-55-416c-24 0-45 21-45 48 0 26 19 47 45 47 26 0 45-21 45-47-1-27-20-48-45-48z m42 287c0 0 0 1 0 0 0 29 22 51 46 51 9 0 17-3 24-7 13-9 24-26 24-44 0-28-21-51-47-51-26 0-47 23-47 51z m69-183c0 28 21 50 46 50 26 0 46-23 46-50 0-29-20-51-46-51-25 0-46 22-46 51z m122-239c-27 0-48 22-48 51 0 28 21 51 48 51 27 0 48-23 48-51 0-28-21-51-48-51z m90 243c-25 0-46 22-46 50 0 29 21 51 46 51 26 0 47-22 47-51 0-27-21-50-47-50z m-48 394l-214-79 387-212 196 98z m-50-124c-3-9-26-8-50 1-15 5-26 13-33 20l-6 13c0 0 0 1 1 1 5 7 26 6 50-2 24-9 41-23 38-33z m118-60c-3-10-26-9-50 1-25 9-42 24-38 32 3 9 25 8 50-1 24-9 41-24 38-32z m7 109c-3-9-26-8-50 1-25 9-42 24-38 33 3 9 26 8 50-1 25-10 41-24 38-33z m107-169c-3-9-26-8-50 1-25 9-43 24-38 32 3 9 25 8 50-1 23-9 41-24 38-32z m0 112c-3-9-26-8-50 1-25 9-43 25-38 33 3 9 25 8 50-1 25-9 42-25 38-33z m60-54c-24 9-42 24-38 32 4 9 26 8 51-1 24-9 42-24 38-32-3-10-26-9-51 1z" horiz-adv-x="1232" />

<glyph glyph-name="loto" unicode="&#xe82a;" d="M876 370c18 0 32 14 32 32 0 17-14 31-32 31-18 0-32-14-32-31 0-18 14-32 32-32m-64 268c-17 0-31-14-31-31 0-17 14-31 31-31 18 0 32 14 32 31 0 17-14 31-32 31m62-452c17 0 31 14 31 31 0 17-14 31-31 31-18 0-32-14-32-31 0-17 14-31 32-31m-132-119c-18 0-32-14-32-31 0-17 14-31 32-31 17 0 31 14 31 31 0 17-14 31-31 31m-494 0c-18 0-32-14-32-31 0-17 14-31 32-31 17 0 31 14 31 31 0 17-14 31-31 31m-39 540c0 17-15 31-32 31-18 0-32-14-32-31 0-17 14-31 32-31 17 0 32 14 32 31m-96-174c-17 0-31-14-31-31 0-18 14-32 31-32 18 0 32 14 32 32 0 17-14 31-32 31m3-247c17 0 31 14 31 31 0 17-14 31-31 31-18 0-32-14-32-31 0-17 14-31 32-31m521-322c-61-19-212-18-285 0-682 174-150 793-219 883-24 31-27 77-7 88 37 20 166 17 192 1 27-18 0-79-5-96-124-288-246-678 182-683 427 5 306 395 181 683-5 17-33 73-4 96 26 20 154 18 191-1 18-9 18-57-7-88-69-90 431-670-219-883" horiz-adv-x="975" />

<glyph glyph-name="roulette-3d" unicode="&#xe82b;" d="M631 830c-32-3-66-7-74-10-8-3-23-6-34-6-12 0-29-3-39-8-10-4-24-7-31-7-7 0-18-3-24-6-6-3-18-8-26-10-95-24-225-99-298-171-59-59-84-105-98-177-8-42-3-95 12-129 16-37 25-54 38-74 8-11 19-30 26-42 33-61 58-95 98-133 33-32 92-75 126-93 6-3 21-11 31-16 83-44 154-66 306-92 40-8 181-8 229 0 97 14 158 30 250 64 59 21 153 78 206 123 44 38 99 106 110 135 2 4 5 12 8 16 2 4 6 11 7 15 2 4 7 14 11 22 3 8 7 18 7 22 0 4 3 14 7 24 4 9 9 25 11 36 2 12 5 19 10 19 6 0 8 12 8 69 0 58-1 70-8 70-4 0-9 6-11 14-3 12-10 30-32 72-11 21-97 104-132 127-17 12-54 32-82 46-28 13-57 27-64 31-8 4-18 7-24 7-5 0-13 4-19 8-5 4-15 7-21 7-6 0-18 4-26 8-8 4-21 8-28 8-8 0-22 3-32 7-10 5-27 8-38 8-10 0-30 4-43 7-29 10-228 15-317 9z m195-37c21-3 58-7 82-9 24-3 50-7 58-10 8-3 23-6 34-6 10 0 23-4 29-8 5-4 15-7 22-7 8 0 20-4 28-8 8-4 18-8 22-8 4 0 14-3 21-7 8-4 29-14 49-24 153-74 231-185 211-302-17-108-116-197-294-264-26-10-52-18-57-18-5 0-18-4-27-8-11-4-25-8-34-8-8 0-23-3-32-7-19-7-109-15-182-15-185-1-370 54-494 146-40 29-83 76-96 105-4 8-9 19-12 23-9 16-21 63-21 87 0 25 13 71 30 104 13 26 50 70 78 91 12 10 25 20 28 23 7 8 63 39 87 51 12 5 27 12 35 17 7 3 17 6 23 6 5 0 14 4 19 8 6 4 17 8 26 8 8 0 20 3 25 7 6 4 19 8 29 8 11 0 26 3 34 6 8 3 36 7 61 10 25 2 60 7 77 9 43 6 96 6 141 0z m33-118c-17-10-23-21-20-37 6-28-35-54-42-27-4 18-28 27-48 19-19-8-30-29-22-41 14-23 6-26-36-13-84 27-83 26-94 47-13 25-29 28-49 9-20-20-21-54-2-66 16-10 30-10 39 0 7 9 25 7 52-5 10-4 31-13 47-20 17-6 31-14 32-17 1-3-11-19-27-34-26-26-33-30-51-30-41 0-57-38-28-67 27-27 67-14 67 22 0 13 5 21 24 39 23 21 37 26 41 13 1-3-6-15-16-25-14-15-18-24-18-37 0-13-5-22-18-35-10-10-18-22-18-26 0-4 12-13 27-20 68-31 170 1 161 51-5 22-26 47-51 61-21 11-22 13-23 39-2 32-1 32 65 9 69-24 76-28 88-48 5-9 13-17 18-17 26 0 53 38 43 58-15 28-33 37-46 22-10-13-32-9-80 13-5 2-21 9-35 14-14 6-27 13-28 17 0 4 11 19 24 32 22 20 29 24 47 24 23 0 36 13 36 37 0 28-36 52-59 39z m62-97c-11-5-26-11-34-13-20-4-21-21-2-28 21-8 28-6 44 11l15 16 20-9c11-4 27-18 36-29 16-20 29-24 39-14 5 5 15 1 37-12 8-5-1-24-12-24-13 0-39-26-37-38 2-16 17-16 50-1 37 16 49 17 59 0 10-15 8-21-11-25-9-2-27-7-42-12l-28-7 4-24c1-13 5-26 8-29 3-3 24-5 47-5 38 0 42-1 44-10 4-17-13-24-58-24-34 0-44-1-51-9-12-13-3-19 35-23 23-4 29-6 29-14 0-5-7-12-18-17-16-8-20-8-50 0-33 8-33 8-50-3-12-9-14-13-10-19 3-4 11-7 19-7 14 0 32-9 32-15 0-7-28-21-41-21-6 0-20 6-30 13-21 14-30 15-50 7-14-7-16-18-5-23 4-2 8-9 8-15 0-10-4-12-21-15-20-4-23-3-39 15-15 17-19 19-33 16-9-1-19-3-23-3-5 0-7-7-7-21l0-21-29 2-30 2-2 18c-1 17-3 19-20 22-13 2-22 1-31-6-31-22-39-26-52-24-7 0-16 1-19 2-10 1-8 14 4 26 11 9 11 11 4 18-15 15-41 15-71 0-24-11-30-12-43-7-20 8-16 21 8 26 25 7 30 18 14 30-15 11-43 12-61 2-19-11-34-9-50 4-17 16-12 24 16 24 29 0 39 11 26 26-8 8-16 10-44 10-36 0-53 9-50 25 2 7 9 9 40 9 52 1 51 1 51 15 0 10-3 13-25 17-15 4-31 6-37 6-25 0-39 20-24 35 9 9 21 8 58-5 31-11 34-11 42-3 13 12 5 23-22 35-46 19-49 24-32 40 16 15 21 14 52-7 30-20 44-23 57-9 9 11 7 15-20 34-11 8-21 16-22 17-7 4 7 22 20 25 18 4 22 8 13 19-7 10-16 7-80-34-60-39-103-107-103-163 0-21 4-36 19-64 22-45 50-74 101-109 49-33 48-32 150-61 53-15 154-23 213-17 27 3 57 6 69 8 11 1 33 5 48 10 16 5 37 11 47 13 67 17 163 90 191 145 35 70 21 136-45 201-30 30-47 41-97 67-80 39-85 40-108 28z m-382-51c0-1 5-9 13-19 14-19 29-22 47-9 14 10 14 21 1 25-13 5-61 7-61 3z m317-83c0-3 6-12 13-21 17-23 25-55 18-74-29-77-171-93-236-27-12 13-32 30-44 38-12 8-26 22-32 32-6 9-14 17-19 17-11 0-9-19 3-26 14-7 36-43 36-59 0-6-5-23-11-35-16-32-18-30 78-63 36-12 143-15 184-4 87 22 149 80 142 132-3 26-11 35-32 35-14 0-22 4-39 23-26 27-61 46-61 32z m-346-81c-11-5-33-31-33-41 0-3 7-13 16-23 19-22 37-24 57-4 20 19 19 42-2 60-17 14-21 15-38 8z" horiz-adv-x="1508" />

<glyph glyph-name="free-spin" unicode="&#xe82c;" d="M59 467l61-16c17-4 34 5 39 21 22 75 70 142 135 187 60 41 130 64 203 64 13 0 26-1 39-2 80-9 154-45 211-102l19-19-37-11c-11-3-20-12-22-23-3-11 0-23 9-31l167-158c5-6 14-9 22-9 3 0 6 0 9 1 10 4 19 12 22 24l53 224c3 11 0 22-9 30-8 8-20 11-31 7l-54-16-7 10c-12 17-25 33-39 48-79 85-185 138-299 151-17 2-35 3-53 3-100 0-195-30-276-87-89-62-154-153-185-256-2-9-1-18 3-25 4-7 11-13 20-15z m873-234l-62 16c-17 4-34-5-39-21-22-75-70-141-135-187-59-41-129-64-203-64-13 0-26 1-39 2-79 9-154 45-211 102l-19 19 38 11c11 3 19 12 22 23 2 11-1 23-9 31l-167 158c-6 6-14 9-22 9-3 0-6 0-9-1-11-4-19-12-22-23l-54-224c-3-12 1-23 9-31 8-8 20-11 31-7l54 16 7-9c12-18 25-34 40-49 78-85 184-138 298-151 18-2 36-3 53-3 100 0 195 30 277 87 88 62 153 153 184 256 2 9 2 18-3 25-4 8-11 13-19 15z m-468 130c-35 0-140 0-140 0-11 0-20-9-20-21v-151c0-11 9-20 20-20 0 0 107 0 143 0 4 0 4 5 4 5v180c0 0 0 7-7 7z m188 0c0 0-104 0-139 0-9 0-8-9-8-9v-178c0 0 0-5 5-5 36 0 142 0 142 0 12 0 21 9 21 20v151c0 11-9 21-21 21z m-181 118c0 0 0 7-6 7-41 0-163 0-163 0-12 0-21-9-21-20v-63c0-11 9-20 21-20 0 0 123 0 163 0 6 0 6 6 6 6v90z m204 7c0 0-123 0-163 0-7 0-7-6-7-6v-92c0 0 0-5 8-5 41 0 162 0 162 0 11 0 20 9 20 20v63c0 11-9 20-20 20z m-272 15c-9 0-18 1-25 2-19 4-32 11-40 22-6 10-9 22-6 36 5 25 22 38 47 38 5 0 11 0 17-1 16-3 36-13 55-25 30-20 32-33 30-41-2-12-13-20-32-25-14-4-31-6-46-6z m-24 66c-10 0-13-3-15-12-2-8 0-10 1-11 2-4 9-7 19-9 5-1 12-2 19-2 15 0 29 3 38 5 1 1 2 1 0 2-11 10-33 22-51 26-4 1-8 1-11 1z m195-66v0c-15 0-32 2-45 6-20 5-31 14-33 25-1 8 0 21 31 41 18 13 38 22 54 25 6 1 12 2 18 2 25 0 41-14 46-39 3-14 1-26-6-36-8-11-21-18-40-21-7-2-15-3-25-3z m-38 39c-1-1-1-1 0-1 9-3 23-5 38-5 8 0 14 0 19 1 10 2 17 5 19 9 1 1 3 3 1 11-1 10-5 13-15 13-3 0-7-1-11-2-18-3-39-16-51-26z" horiz-adv-x="990" />

<glyph glyph-name="webmoney" unicode="&#xe82d;" d="M3496 850c78 0 152-18 219-51 10-5 20-10 31-16l-46-41-69 71-117-104-69 76-218-196 140-154-55-48 137-154-54-48 196-218 116 107 101-115c-20-16-42-30-66-44-73-41-157-65-246-65-276 0-500 225-500 500 0 275 224 500 500 500v0m-92-468l119 107 107-119-118-107-108 119v0m85-206l119 107 107-119-119-107-107 119v0m-170 409l119 107 107-119-119-107-107 119v0m219 57l89 81 80-90-89-80-80 89v0m158-367l89 80 81-89-90-81-80 90v0m78-181l90 81 80-89-89-81-81 89v0m36 413l60 54 53-60-59-53-54 59v0m-76 177l60 53 53-59-59-54-54 60v0m152-353l60 53 53-59-59-54-54 60v0m-266 132l89 80 80-89-89-80-80 89v0m-3387-27h-4l-75-284h-62l-92 404h64l64-302h4l74 302h51l79-302h4l58 302h67l-92-404h-62l-78 284m485-222v-43c-26-15-60-26-101-26-96 0-135 59-135 149 0 87 44 150 129 150 71 0 115-47 115-140v-21h-186c0-68 28-98 87-98 31 0 59 10 91 29z m-176 108h130c-3 59-32 83-63 83-34 0-61-26-67-83m296 101c17 9 46 21 77 21 70 0 109-49 109-141 0-106-52-158-134-158-31 0-78 9-112 28v398l60 14z m-1-229c18-8 38-9 53-9 42 0 74 26 74 118 0 73-27 96-65 96-23 0-39-6-62-19v-186m446 43h3l122 319h71v-404h-62v293h-5l-116-293h-37l-116 286h-5v-286h-52v404h69l128-319m259 57c0 100 54 150 130 150 75 0 130-50 130-150 0-97-52-149-130-149-79 0-130 52-130 149z m200 0c0 77-32 110-70 110-38 0-71-33-71-110 0-78 30-109 71-109 40 0 70 31 70 109m114 107c26 16 80 43 145 43 69 0 95-27 95-86v-206h-60v193c0 45-22 53-51 53-23 0-52-10-70-21v-225h-59v249m529-187v-43c-26-15-60-26-101-26-96 0-135 59-135 149 0 87 44 150 129 150 71 0 115-47 115-140v-21h-186c0-68 28-98 87-98 31 0 59 10 91 29z m-177 108h131c-3 59-32 83-63 83-34 0-61-26-68-83m407 112h61l-103-285c-29-79-63-120-129-120v47c39 0 63 31 77 73l-110 285h63l73-210h3l65 210" horiz-adv-x="3999" />

<glyph glyph-name="neteller" unicode="&#xe82e;" d="M1544 364c-9-6-22-9-40-9h-8-10l14 73h7 6c15 0 26-2 33-7 6-4 13-11 13-26 0-17-8-26-15-31m-1056-92h-137l9 48h86l10 54h-86l9 48h136l-27-150z m1130 191c-20 13-51 20-91 20h-104l-39-211h-137l8 48h83l10 54-83 0 9 48h85l11 61h-172l-37-200h-64l38 200h-91l-37-200h-61l37 200h-90l-39-211h-139l9 48h83l10 54-83 0 9 48h86l11 61h-538l-31-167-61 167h-94l-50-273h89l31 172 59-172h321l39 212h50l-39-212h844l24 134 40-134h89l-41 109 10 2c20 5 37 14 48 28 11 15 17 33 17 56 0 25-10 44-29 58m74-220l12 0c2 0 4 1 6 1 1 1 2 2 3 3 1 1 1 3 1 4 0 2-1 4-2 5-2 1-4 2-8 1l-13 0 1-14z m-5-25l-2 43 19 1c4 0 7 0 9 0 2-1 3-2 5-4 1-2 2-4 2-7 0-3-1-5-3-8-2-2-5-3-9-4 2-1 3-1 4-2 2-1 3-3 5-5l8-12-7 0-6 9c-2 2-4 4-5 5-1 2-2 2-3 3-1 0-2 1-2 1-1 0-2 0-4 0l-6 0 1-19-6-1z m-19 21c0 9 3 18 9 24 6 7 14 11 23 11 18 1 34-13 35-32 0 0 0-1 0-1 0-18-14-33-32-34-18 0-34 14-35 32m32 42c-11-1-21-5-28-13-7-8-11-19-10-29 1-22 20-39 42-38 22 1 39 20 38 42v0c-1 22-20 39-42 38" horiz-adv-x="1800" />

<glyph glyph-name="skrill" unicode="&#xe82f;" d="M2103 610c66 0 120 54 120 120 0 66-54 120-120 120-66 0-120-54-120-120 0-66 54-120 120-120z m-920-65c-6-14-45-124-139-238v488l-252-49v-886h252v274c73-109 109-274 109-274h301c-30 124-160 352-160 352 117 149 168 307 176 333z m661 9c-225-7-340-108-340-309v-385h246v314c0 120 16 172 158 177v200c-24 5-64 3-64 3z m-1473-107c-31 2-103 7-103 71 0 78 103 78 142 78 67 0 155-20 218-39 0 0 35-12 64-25l3-1v3 209l-4 2c-74 25-160 50-319 50-275 0-372-160-372-297 0-79 34-265 349-286 26-2 97-6 97-72 0-55-58-87-155-87-107 0-211 27-274 53v-219c94-25 201-37 325-37 269 0 389 151 389 302 0 170-135 280-360 295z m1610-587h244v684h-244z m703 892v-892h244v935z m-356 0l244 43v-935h-244v892" horiz-adv-x="2928" />

<glyph glyph-name="qiwi" unicode="&#xe830;" d="M795 159c-9 39-27 69-52 91-9 9-19 16-31 23-6 3-11 5-19 8-13 5-30 11-51 9 10 5 26 6 43 5 13-1 25-5 36-8 10-6 20-11 29-17 24 71 15 168-11 230-26 65-63 119-111 162-48 43-105 77-180 92-38 8-85 7-119-1-36-9-66-25-92-44-24-21-47-43-63-73-6-6-8-15-13-22-3-8-7-16-11-23-5-17-12-34-15-53-9-35-10-84-4-122 4-41 16-74 29-107 8-15 15-31 23-45 9-14 19-27 29-40 21-23 45-45 72-63 55-36 118-64 205-68 1 3-3 10-4 15-1 5-2 11-3 16-1 12-2 25 0 37 3-1 3-6 5-8 2-2 3-5 6-6 2-7 7-10 10-16 8-8 14-18 24-24 9-9 20-14 29-21 11-5 20-12 33-16 21-11 50-15 78-19 29-4 57-9 83-15 25-9 50-17 69-30 11-6 21-12 31-19 4-4 10-6 14-11 5-2 8-7 14-10 16-15 33-32 47-50 6-11 14-19 18-31 4-5 5-12 9-17 0-6 6-13 1-18-8-1-6 7-10 11-2 4-5 8-7 13-13 13-24 28-38 40-14 11-27 24-43 33-30 21-65 38-106 49-40 11-85 16-137 13-22-3-44-8-63-14-21-6-43-8-66-11-88-6-186 15-252 47-35 16-67 36-95 59-15 11-27 25-40 38-11 14-23 28-32 44-12 15-18 34-28 50-6 19-15 36-20 57-6 19-10 41-12 65-1 6-4 19-4 29 0 1 1 2 1 3 0 9-2 23 0 31 0 22 4 48 8 68 4 22 10 42 16 61 6 19 15 36 23 55 5 7 9 16 14 24 4 9 10 15 14 24 4 2 5 8 8 11 2 5 6 7 8 12 3 3 6 6 9 11 3 3 6 6 8 10 13 13 24 27 38 39 13 13 28 24 42 36 9 4 15 10 24 15 6 6 16 9 22 15 18 8 34 18 53 25 17 8 37 14 56 20 41 11 83 18 135 16 2 0 3 2 3 0 98-3 169-32 230-72 60-40 106-94 140-161 32-66 51-156 35-251-7-42-20-80-35-115-9-16-17-34-27-48-5-9-10-16-15-23-2-4-5-8-8-11-1-2-3-4-4-5-1-1-1-2-2-2 0-2-1-3-1-2m-39-25c-12 5-15 21-20 33-1 4-2 11 0 15 1 0 1 1 2 1 3 2 6-1 11-2 6-7 10-17 13-27 0-9 1-18-6-20m-146 23c0 1 1 1 1 0 19-2 28-15 29-35-1-12-8-18-18-21-26 0-40 23-31 48 5 4 8 9 19 8m636 292c-9-1-15-5-23-7-5-5-11-9-15-14-6-4-8-12-13-17-4-10-8-22-10-35-3-13-5-29-5-43 0-37 8-74 23-96 9-11 19-20 32-26 8-1 14-3 22-3 4 1 12 0 15 3 7-1 8 4 14 4 3 3 6 6 11 8 4 4 7 9 12 13 2 3 3 7 6 9 19 36 21 102 9 144-5 15-11 27-19 37-8 9-17 16-28 21-8 2-16 4-28 3 0 0-1 0-1-1z m52-272c3-13 10-22 17-31 8-9 16-16 27-21 10-7 21-12 33-15 7-3 12-5 20-6 5-3 11-4 12-12-1-9-7-12-14-14-8 2-18 2-24 5-16 2-30 7-43 11-26 11-48 25-67 44-4 6-9 11-13 17-4 6-7 13-11 19-32 4-54 19-73 36-18 20-32 44-38 76-7 31-4 70 4 100 17 57 54 96 125 101 19-1 36-3 51-9 16-5 31-16 42-27 1-1 2-1 2-2 3-4 9-8 12-13 1-1 1-2 1-3 2-2 4-3 5-4 0-1 0-3 1-4 1-1 2-3 3-5 1-1 2-2 2-2 2-4 3-8 5-12 1-4 4-8 5-12 4-12 7-27 9-42 4-43-5-82-21-111-8-15-18-27-30-38-12-11-27-18-42-26m176 302c16 0 36 2 51-1 4-5 2-11 2-17 2-79 0-164 0-245 0-6 1-13 0-19 0-5 2-11-2-16-7-2-18-1-28-1-10 0-20-2-27 2-2 95-2 198 0 294 1 2 2 3 4 3m129 0h50c5-6 6-15 8-25 15-58 30-116 44-175 3-1 2 3 3 5 2 2 1 5 3 7 0 4 3 7 3 13 4 7 5 17 8 24 5 18 11 34 16 51 4 18 11 33 15 52 7 15 8 35 17 48h21c8-14 11-34 18-49 4-18 10-34 15-51 10-34 21-67 31-101 4 6 4 17 8 25 1 8 3 17 6 24 8 34 16 69 26 102 4 17 7 34 13 49 12 2 32 2 44 0 1-12-5-26-9-38-2-13-7-24-9-37-8-25-14-51-22-75-6-25-14-49-20-75-4-12-8-25-11-38-4-11-6-26-12-35h-30c-8 13-11 32-17 46-15 48-32 93-47 141-5-5-5-16-8-22-3-9-5-17-8-24-4-17-10-31-14-48-6-14-10-31-15-47-6-14-9-32-16-45-8-3-21-1-30-1-8 8-9 24-13 35-4 12-6 26-11 37-6 26-15 49-21 75-7 24-14 50-21 75-4 12-7 24-11 36-2 13-10 25-7 39 0 1 2 2 3 2m426 0c16 0 36 2 51-1 4-11 2-23 2-35v-227c0-12 2-24-2-35-11-2-28-2-43-1-4 0-9-1-12 2-3 11-2 23-2 35v225c0 13-1 26 2 35 1 1 2 2 4 2" horiz-adv-x="2083" />

<glyph glyph-name="yandex-money" unicode="&#xe831;" d="M336 702h-41c-62 0-122-41-122-160 0-115 55-152 122-152h41z m-64-376l-122-274h-89l134 293c-63 32-105 90-105 197 0 150 95 225 208 225h115v-715h-77v274h-64m1636-22c0 158 61 259 179 259 45 0 71-12 93-26l-11-74c-21 18-51 35-83 35-56 0-96-63-96-190 0-126 30-198 93-198 38 0 67 15 85 31l18-58c-27-23-59-38-105-38-108 0-173 87-173 259z m-228-1v-251h-78v504h78v-233l121 233h79l-125-237 143-267h-85z m-367 47h129c0 86-14 149-59 149-48 0-65-59-70-149z m86-305c-104 0-167 83-167 238 0 162 44 280 151 280 84 0 139-63 139-234v-43h-210c0-114 32-174 94-174 44 0 79 20 99 34l18-60c-32-25-74-41-124-41z m-331 448h-87v-9c0-106-5-261-47-368h134z m117-540h-70v99h-216v-99h-70v163h31c46 107 51 263 51 397v43h234v-440h40z m-401 603v-504h-77v226h-116v-226h-78v504h78v-214h116v214h77m1879 170h-155c-3-181-8-319-16-422-9-107-25-178-52-211h223z m53-674h-306l-7-119h-39v160h21c35 29 52 109 62 211 10 106 13 264 16 463h250v-674h49v-160h-39l-7 119m143 281h183c8 134-32 194-83 194-53 0-96-68-100-194z m110-250c67 0 102 54 102 54l15-38c0 0-38-57-118-57-107 0-156 97-156 262 0 165 62 262 147 262 87 0 143-91 127-270h-228c2-138 38-213 111-213m424 212h-172v-243h-46v504h46v-223h172v223h47v-504h-47v243m205 37v-243h30c71 0 119 35 119 122 0 85-42 121-114 121z m-47 224h47v-187h37c96 0 158-52 158-157 0-107-66-160-161-160h-81v504m369-39v-465h-46v504h213v-39h-167m474-114c0 26 2 48 4 69h-3c-7-22-16-43-27-65l-164-355h-40v504h44v-350c0-27-2-49-4-71h3c7 23 17 45 27 67l164 354h41v-504h-45v351" horiz-adv-x="4500" />

<glyph glyph-name="alfa-click" unicode="&#xe832;" d="M2367 359c-21 0-38-17-38-38 0-21 17-38 38-38 21 0 38 17 38 38 0 21-17 38-38 38z m-1310-36c0 0 19 63 22 73 7 25 19 66 19 66h2c0 0 10-42 17-66 3-9 21-73 21-73z m115-115h68l-103 315c-11 4-24 6-39 6-15 0-21-2-33-6l-109-315h65c0 0 9 28 19 62h113c11-34 19-62 19-62z m337 228l-1-216c28-12 59-17 87-17 62 0 96 32 96 86 0 48-30 78-85 78-14 0-23-2-38-5v74h-59z m121-150c0-22-8-37-36-37-10 0-14 0-26 3v65c15 3 16 4 26 4 27 0 36-14 36-35z m636-56c-15 24-19 38-19 67v61c0 33-4 45-13 57-12 17-32 24-69 24-26 0-52-3-76-9l9-43c16 2 34 4 46 4 39 0 44-6 44-35v-11c-9 2-19 4-30 4-59 0-90-29-90-77 0-44 33-69 74-69 15 0 31 3 43 8 8 3 11 5 21 12 6-9 17-18 22-19z m-75 26c-13-5-22-6-32-6-21 0-33 9-33 30 0 23 15 31 44 31 7 0 15-2 18-3v-16c0-17 1-29 3-36z m-729-48v217c-33 10-58 14-91 14-32 0-57-4-89-14v-111c0-30-1-39-4-49-3-9-8-19-20-27l17-34c47 13 65 34 65 99v82c16 3 19 3 31 3 13 0 16 0 31-3v-177z m448-74v81c7-4 22-11 47-11 50 0 87 42 87 118 0 82-36 117-97 117-15 0-25-1-37-7v97h-59v-97c-13 6-23 7-38 7-60 0-97-36-97-118 0-76 33-117 87-117 25 0 40 7 48 11v-81h59m-133 187c0 45 13 69 40 69 12 0 20 0 34-7v-124c-13-4-19-5-31-5-31 0-43 25-43 67m207 1c0-41-17-68-44-68-11 0-17 1-30 5v124c14 7 21 7 33 7 27 0 41-23 41-68m-1663 370l-89-266h179l-89 266z m-311-709c-6 0-10-4-10-10v-113c0-6 4-10 10-10h622c6 0 10 4 10 10v113c0 6-4 10-10 10h-622m311 867c68 0 90-49 107-98 8-20 185-504 190-519 2-4 1-11-6-13-6-2-98-38-103-40-5-2-11 1-12 6-2 5-40 110-45 122h-262c-4-12-43-117-44-122-2-5-8-8-13-6-5 2-98 38-103 40-5 2-8 8-6 13 7 18 181 495 190 519 17 49 39 98 107 98z" horiz-adv-x="2405" />

<glyph glyph-name="paypal" unicode="&#xe833;" d="M383 430l-48 0c-3 0-6-3-6-6l-19-122c-1-3 1-5 4-5l22 0c4 0 6 3 7 6l5 33c1 3 3 5 7 5l15 0c31 0 49 16 54 46 2 13 0 23-6 31-7 7-19 12-35 12m6-45c-3-17-16-17-29-17l-7 0 5 32c0 2 2 3 4 3l3 0c9 0 17 0 21-5 3-3 4-7 3-13m137 1l-23 0c-2 0-4-2-4-4l-1-6-2 2c-5 7-16 10-27 10-25 0-46-19-51-46-2-14 1-26 9-35 7-8 17-12 29-12 20 0 31 13 31 13l-1-6c0-3 2-5 4-5l21 0c3 0 6 3 6 6l13 78c0 2-2 5-4 5m-32-45c-2-13-13-22-26-22-7 0-12 2-15 6-4 4-5 10-4 17 2 12 13 21 26 21 6 0 11-2 15-6 3-4 5-10 4-16m153 45l-23 0c-2 0-4-2-5-3l-32-47-13 45c-1 3-4 5-7 5l-22 0c-3 0-5-3-4-6l25-74-23-33c-2-3 0-7 3-7l23 0c2 0 4 1 5 3l77 110c1 3 0 7-4 7m76 44l-47 0c-4 0-6-3-7-6l-19-122c-1-3 1-5 4-5l24 0c2 0 4 2 5 4l5 35c1 3 3 5 7 5l15 0c31 0 49 16 54 46 2 13 0 23-6 31-7 7-19 12-35 12m6-45c-3-17-16-17-29-17l-7 0 5 32c1 2 2 3 4 3l4 0c8 0 16 0 20-5 3-3 4-7 3-13m137 1l-23 0c-2 0-4-2-4-4l-1-6-2 2c-4 7-16 10-27 10-25 0-46-19-50-46-3-14 0-26 8-35 7-8 17-12 29-12 20 0 31 13 31 13l-1-6c0-3 2-5 4-5l21 0c3 0 6 3 6 6l13 78c0 2-2 5-4 5m-32-45c-2-13-13-22-26-22-6 0-12 2-15 6-4 4-5 10-4 17 2 12 13 21 26 21 6 0 12-2 15-6 4-4 5-10 4-16m59 85l-20-124c0-3 2-5 4-5l20 0c3 0 6 3 6 6l20 122c0 2-2 5-4 5l-22 0c-2 0-4-2-4-4m-781-153l3 24-8 0-39 0 27 171c0 0 1 1 1 1 0 0 1 1 1 1l66 0c22 0 37-5 44-14 4-4 6-8 8-13 1-5 1-11 0-19l-1 0 0-5 4-2c3-2 6-3 8-6 3-3 5-8 6-13 0-6 0-12-1-20-2-8-5-16-8-22-4-6-8-10-13-14-5-3-11-6-17-8-6-1-14-2-22-2l-5 0c-3 0-7-1-10-4-2-2-4-5-5-9l0-2-7-41 0-1c0-1 0-1 0-1-1 0-1-1-1-1l-31 0z m110 150c-1-1-1-2-1-4-9-44-38-59-76-59l-19 0c-5 0-9-3-9-8l-10-62-3-18c0-3 2-6 5-6l34 0c4 0 7 3 8 7l0 2 7 41 0 2c1 4 4 7 8 7l5 0c33 0 59 13 67 52 3 16 1 30-7 39-3 3-6 5-9 7m-9 4c-2 0-3 1-4 1-2 0-3 0-5 1-5 1-11 1-17 1l-51 0c-1 0-2 0-4-1-2-1-4-3-4-6l-11-69 0-2c0 5 4 8 9 8l19 0c38 0 67 15 76 59 0 2 0 3 1 4-3 1-5 2-7 3-1 0-2 1-2 1m-85-4c0 3 2 5 4 6 2 1 3 1 4 1l51 0c6 0 12 0 17-1 2-1 3-1 5-1 1 0 2-1 4-1 0 0 1-1 2-1 2-1 4-2 7-3 2 17 0 28-9 38-10 11-28 16-50 16l-66 0c-4 0-8-4-9-8l-27-173c-1-3 2-6 6-6l40 0 10 64 11 69z" horiz-adv-x="1000" />

<glyph glyph-name="freespin-deposit" unicode="&#xe834;" d="M65 460l63-16c17-4 34 5 39 22 23 76 72 143 137 189 61 43 132 65 207 65 13 0 27 0 40-2 81-9 157-45 214-103l20-19-38-12c-12-3-20-12-23-23-2-11 1-23 9-31l170-161c6-6 14-9 23-9 3 0 6 0 9 1 11 3 19 12 22 24l55 228c3 11-1 23-9 31-9 7-21 10-32 7l-55-16-7 9c-12 18-26 34-40 50-80 86-188 140-304 153-18 2-36 3-54 3-101 0-198-31-281-89-90-63-157-155-188-260-2-9-1-18 3-26 4-7 12-12 20-15z m923-220l-65 16c-18 4-36-5-41-22-24-76-75-143-143-189-63-43-138-65-216-65-14 0-28 0-41 2-84 9-164 45-224 103l-20 19 40 12c11 3 20 12 23 23 3 12-1 23-10 31l-177 162c-6 5-15 8-23 8-3 0-7 0-10-1-11-3-20-12-23-24l-57-227c-3-12 1-24 9-31 9-8 22-11 33-8l58 16 7-9c13-17 27-34 42-50 83-86 196-140 317-153 19-2 38-3 56-3 106 0 207 31 293 89 94 63 164 156 196 260 3 9 2 18-3 26-4 7-12 13-21 15z m-434 358v-31a218 178 0 0 0 65-12 125 102 0 0 0 47-29 155 126 0 0 0 25-30 85 70 0 0 0 8-29 42 34 0 0 0-12-25 43 35 0 0 0-31-10 44 36 0 0 0-45 30 80 65 0 0 1-56 48v-120c29-6 52-12 70-18a138 113 0 0 0 46-23 131 107 0 0 0 33-38 145 118 0 0 0 11-50 155 126 0 0 0-20-59 146 119 0 0 0-52-47 194 158 0 0 0-86-21v-28a80 65 0 0 0-5-25 17 14 0 0 0-17-8 20 16 0 0 0-18 7 44 36 0 0 0-5 19v36a230 188 0 0 0-73 15 169 138 0 0 0-54 27 160 131 0 0 0-30 38 122 100 0 0 0-10 37 43 35 0 0 0 13 25 43 35 0 0 0 33 11 48 39 0 0 0 27-6 38 31 0 0 0 15-16 470 384 0 0 1 16-37 88 72 0 0 1 22-23 96 78 0 0 1 38-15v135a433 354 0 0 0-79 24 131 107 0 0 0-51 37 150 123 0 0 0 18 143 173 141 0 0 0 111 36v32c0 16 7 25 22 25 15 0 24-9 24-25z m-44-197v110a125 102 0 0 1-46-19 56 45 0 0 1-17-36 55 45 0 0 1 16-35 147 120 0 0 1 47-20z m44-84v-127a97 79 0 0 1 56 24 73 60 0 0 1 19 42 60 49 0 0 1-19 38 149 122 0 0 1-56 22z" horiz-adv-x="1013" />

<glyph glyph-name="entropay" unicode="&#xe835;" d="M2008 431c70 0 102-55 109-109h-221c11 67 54 109 112 109m0 95c-128 0-226-103-226-241v-1c0-139 100-240 238-240 77 0 141 29 189 86l3 4-68 60-4-3c-37-37-73-53-119-53-65 0-112 41-124 106h331l1 7c1 9 1 18 1 27 0 123-68 248-222 248m541 0c-55 0-100-23-136-69v60h-114v-463h114v260c0 66 38 108 97 108 59 0 92-38 92-106v-262h114v294c0 110-64 178-167 178m391 115h-113v-124h-84v-99h84v-234c0-91 45-138 135-138 37 0 67 8 96 24l2 2v95l-7-3c-20-10-40-15-62-15-35 0-51 16-51 51v218h122v99h-122z m453-116c-65 0-115-32-148-93v85h-113v-463h113v177c0 111 55 175 150 175h11v119l-5 0c-3 0-6 0-8 0m145-239c0 81 56 139 132 139 76 0 134-60 134-141v-1c0-80-56-139-132-139-75 0-134 62-134 140z m134 240c-139 0-247-106-247-242v-1c0-134 108-239 245-239 139 0 247 105 247 240v2c0 135-108 240-245 240m673-240v-2c0-81-52-140-124-140-73 0-128 61-128 140v2c0 80 55 140 128 140 71 0 124-60 124-140m-100 240c-60 0-109-25-149-75v66h-114v-654h114v252c40-47 89-70 149-70 107 0 215 82 215 239v2c0 158-108 240-215 240m451-396c-50 0-83 25-83 64v1c0 44 38 71 101 71 44 0 77-9 98-17v-27c0-53-48-92-116-92m21 393c-79 0-129-18-173-38l-4-2 31-90 5 2c40 17 77 28 127 28 71 0 108-33 108-94v-4c-29 8-65 17-117 17-120 0-192-57-192-151v-2c0-99 86-144 165-144 57 0 106 20 143 58v-49h111v273c0 63-17 111-50 144-34 34-87 52-154 52m591-6l-114-327-125 327h-122l191-459-27-64c-15-34-31-47-59-47-19 0-38 6-58 17l-5 2-39-86 4-2c36-19 69-28 109-28 73 0 114 31 149 114l1-1 213 554z m-4157 333c-164 0-306-96-373-235 0 0 0 0 0 0l-143-306c-45-77-127-128-222-128-141 0-256 115-256 256 0 141 115 256 256 256 41 0 80-10 114-27l60 146c-53 24-112 38-174 38-228 0-413-185-413-413 0-228 185-414 413-414 144 0 270 74 344 185 8 16 17 31 26 46l139 296c42 84 129 143 229 143 141 0 256-115 256-256 0-141-115-256-256-256-48 0-94 14-133 38l-60-147c58-31 123-49 193-49 228 0 414 186 414 414 0 228-186 413-414 413m-560-28l-201-489h161l201 489z m332-443l-201-488h161l201 488z" horiz-adv-x="5426" />

<glyph glyph-name="search-light" unicode="&#xe836;" d="M0-41q0 47 33 80l260 260q-43 82-43 176 0 154 109 265t266 110 266-110 109-266-109-265-266-109q-94 0-176 43l-260-260q-33-33-80-33-45 0-77 32t-32 77z m55 1q0-22 16-39t39-16 40 17l252 252q-45 33-78 78l-252-252q-17-17-17-40z m258 515q0-129 91-221t221-91 221 91 91 221-91 221-221 91-221-91-91-221z m93 0q0 90 65 154t154 65q16 0 16-16t-16-16q-78 0-133-54t-54-133q0-16-16-16t-16 16z" horiz-adv-x="1000" />

<glyph glyph-name="check-ligh" unicode="&#xe837;" d="M280-120l570 875-85 50-495-760-200 235-70-75 280-325z" horiz-adv-x="850" />

<glyph glyph-name="code" unicode="&#xe838;" d="M378 38q-65 0-112 47l-266 266 266 267q44 44 111 44t111-44q46-46 46-110t-46-111l-45-46 45-45q46-46 46-111t-46-110-110-47z m-230 313l192-193q15-15 37-15t37 15 15 37-15 37l-119 119 119 120q15 15 15 37t-15 37-37 15-37-15z m663-313q-63 0-110 47t-46 110 46 111l47 45-47 46q-46 46-46 111t46 110q44 44 111 44t111-44l266-267-266-266q-47-47-112-47z m0 522q-21 0-36-15t-15-37 15-37l119-120-119-119q-15-15-15-37t15-37 37-15 37 15l192 193-192 194q-15 15-38 15z" horiz-adv-x="1189" />

<glyph glyph-name="picture" unicode="&#xe839;" d="M357 529q0-45-31-76t-76-32-76 32-31 76 31 76 76 31 76-31 31-76z m572-215v-250h-786v107l178 179 90-89 285 285z m53 393h-893q-7 0-12-5t-6-13v-678q0-7 6-13t12-5h893q7 0 13 5t5 13v678q0 8-5 13t-13 5z m89-18v-678q0-37-26-63t-63-27h-893q-36 0-63 27t-26 63v678q0 37 26 63t63 27h893q37 0 63-27t26-63z" horiz-adv-x="1071.4" />

<glyph glyph-name="bold" unicode="&#xe83a;" d="M310 1q41-18 78-18 210 0 210 187 0 64-23 101-15 24-34 41t-38 26-45 14-47 6-53 1q-40 0-56-6 0-29 0-88t-1-88q0-5 0-38t0-54 2-47 7-37z m-8 417q23-4 61-4 46 0 80 7t61 25 42 50 14 79q0 39-16 68t-45 46-60 24-69 8q-28 0-73-7 0-28 3-84t2-85q0-15 0-45t-1-44q0-26 1-38z m-302-497l1 53q9 2 48 9t59 15q4 7 7 15t4 19 4 18 1 21 0 19v36q0 548-12 572-2 5-12 8t-25 6-28 4-27 3-17 2l-2 46q55 1 190 6t208 6q13 0 38-1t38 0q39 0 76-7t72-24 60-39 41-59 16-76q0-29-9-54t-22-40-36-32-41-25-47-22q86-20 144-75t57-138q0-56-20-101t-52-72-77-48-91-27-98-8q-25 0-74 2t-74 1q-59 0-171-6t-129-7z" horiz-adv-x="785.7" />

<glyph glyph-name="star" unicode="&#xe83b;" d="M929 489q0-12-15-27l-202-197 48-279q0-4 0-12 0-11-6-19t-17-9q-10 0-22 7l-251 132-250-132q-12-7-23-7-11 0-17 9t-6 19q0 4 1 12l48 279-203 197q-14 15-14 27 0 21 31 26l280 40 126 254q11 23 27 23t28-23l125-254 280-40q32-5 32-26z" horiz-adv-x="928.6" />

<glyph glyph-name="hourglass" unicode="&#xe83c;" d="M0-37v70q0 22 12 49t24 46 38 55l24 33t26 36 22 33 18 35 5 30-5 30-18 35-22 33-26 36l-24 32q-26 37-38 55t-24 46-12 49v70q0 34 24 58t59 24h419q35 0 59-24t25-58v-70q0-22-12-49t-24-46-38-55l-24-32t-27-36-22-33-17-35-6-30 6-30 17-35 22-33 27-36l24-33q25-36 38-55t24-46 12-49v-70q0-34-25-58t-59-24h-419q-34 0-59 24t-24 58z m100 35h40q0 9 2 17t9 18 12 16 17 18 19 16 22 17 23 16 25 18 24 17q8-6 26-19t28-19 25-19 25-19 19-19 16-19 10-19 4-20h40v35q0 7-14 31-8 14-42 63-53 75-71 108-34 64-34 115 0 26 7 54t25 57 30 50 36 51l7 10q33 47 42 64 6 9 9 17t4 11l1 2v35h-386v-35q1-8 13-30 10-17 43-64 53-75 71-108 34-63 34-114 0-27-8-54t-25-58-29-49-36-52q-1-1-2-2t-2-2-2-3-1-3q-34-49-43-63-13-24-13-31v-35z" horiz-adv-x="585.9" />

<glyph glyph-name="resize-small" unicode="&#xe83d;" d="M648 88l-72-72 0 223 223 0-72-72 184-185-79-79z m-448 447l-182 183 79 79 183-182 73 70-1-222-222-1z m-182-553l184 185-72 72 223 0 0-223-72 72-184-185z m782 480l-224 0 0 225 73-72 183 182 79-79-183-183z" horiz-adv-x="928" />

<glyph glyph-name="arrow-right" unicode="&#xe83e;" d="M399 684q31 31 74 31t73-31l334-335-334-334q-30-30-73-30t-74 30q-31 31-31 74t31 74l82 82-377 0q-44 0-74 31t-30 73q0 44 31 74t73 31l377 0-82 82q-31 32-31 75t31 73z" horiz-adv-x="880" />

<glyph glyph-name="mobile-phone" unicode="&#xe83f;" d="M23 843c-5-3-12-9-15-15l-5-9 0-469 0-469 5-9c3-6 10-12 15-15 8-4 19-5 235-5l226 0 9 6c4 3 10 9 13 13l5 7 0 472 0 472-5 7c-3 4-9 10-13 13l-9 6-226 0c-216 0-227-1-235-5z m323-57c1-2 0-6-2-8-2-3-16-3-88-3-72 0-85 0-88 3-1 2-2 6-1 8 1 3 13 4 89 4 77 0 89-1 90-4z m129-420l0-378-217 0-218 0 0 378 0 379 218 0 217 0 0-379z m-201-407c10-5 22-19 24-30 7-38-40-66-69-41-16 15-20 35-10 54 11 18 37 27 55 17z" horiz-adv-x="513" />

<glyph glyph-name="planshet" unicode="&#xe840;" d="M47 848c-27-1-32-3-41-16l-5-6-1-470c0-259 0-474 1-477 2-9 10-19 19-24 7-4 28-4 322-4 289 0 315 0 321 4 9 4 16 12 19 19 1 5 2 149 2 476 0 327-1 471-2 476-3 7-10 15-19 19-5 4-31 4-298 4-161 0-304 0-318-1z m605-484l0-396-310 0-310 0 0 396 0 396 310 0 310 0 0-396z m-295-420c9-5 19-17 20-26 6-33-33-57-58-35-14 13-18 30-9 45 9 16 32 23 47 16z" horiz-adv-x="684" />

<glyph glyph-name="chrome" unicode="&#xe841;" d="M498 850c-147-1-291-67-387-186l154-237c39 111 150 182 267 170l414-22c-42 84-108 157-196 208-79 46-166 67-252 67z m-416-226c-52-79-82-173-82-274 0-250 183-457 423-494l128 252c-116-22-233 39-281 146l-188 370z m885-94l-282-15c76-89 82-221 13-317l-226-347c94-6 190 15 278 66 216 125 304 387 217 613z m-467-11c-93 0-169-76-169-169s76-169 169-169 169 76 169 169-76 169-169 169z" horiz-adv-x="1000" />

<glyph glyph-name="notebook" unicode="&#xe842;" d="M143 845l-6-4-1-323-1-322-7-14c-4-7-7-14-7-15 0-1-3-8-6-15-3-8-8-19-11-25-2-5-7-15-9-20-3-6-5-12-5-13 0-1-3-8-6-15-4-8-9-19-11-25-3-5-7-14-10-20-3-6-5-12-5-13 0-1-4-10-17-39-3-5-5-11-5-12 0-1-2-8-6-15-3-8-8-19-11-24-2-6-7-16-10-22-5-12-8-33-6-43 1-4 6-9 10-11 8-5 15-5 603-5 526 0 596 0 602 4 15 7 17 23 6 39-4 5-9 14-10 19-2 5-5 12-7 16-5 10-14 32-16 38-1 4-4 9-5 11-2 3-5 10-6 15-2 5-5 12-7 16-5 10-15 33-15 35 0 1-2 7-5 12-11 25-17 37-18 43-1 3-3 8-5 11-2 2-4 9-6 14-2 5-5 12-6 16-6 11-15 32-18 42-2 5-4 9-6 10-1 1-2 129-2 325l0 324-6 5-7 5-465 0c-454 0-465 0-471-5z m913-327l0-297-442 0-442 0 0 295c0 162 1 295 2 296 1 1 200 2 442 2l440 0 0-296z m-354-622c3-8 7-15 7-16 0 0-43-1-95-1-75 0-95 1-94 3 1 2 4 9 7 16l5 13 81 0 81 0 8-15z" horiz-adv-x="1233" />

<glyph glyph-name="help-circle" unicode="&#xe843;" d="M454 810q190 2 326-130t140-322q2-190-131-327t-323-141q-190-2-327 131t-139 323q-4 190 130 327t324 139z m-2-740q30 0 49 19t19 47q2 30-17 49t-49 19l-2 0q-28 0-47-18t-21-46q0-30 19-49t47-21l2 0z m166 328q26 34 26 78 0 78-54 116-52 38-134 38-64 0-104-26-68-42-72-146l0-4 110 0 0 4q0 26 16 54 16 24 54 24 40 0 52-20 16-20 16-44 0-18-16-40-8-12-20-20l-6-4q-6-4-16-11t-20-15-21-17-17-17q-14-20-18-78l0-8 108 0 0 4q0 12 4 28 6 20 28 36l28 18q46 34 56 50z" horiz-adv-x="920" />

<glyph glyph-name="mobile-bold" unicode="&#xe844;" d="M480 840q42 0 71-29t29-71l0-780q0-40-29-70t-71-30l-380 0q-40 0-70 30t-30 70l0 780q0 42 30 71t70 29l380 0z m-190-940q30 0 50 15t20 35q0 22-20 36t-50 14q-28 0-49-15t-21-35 21-35 49-15z m210 150l0 660-420 0 0-660 420 0z" horiz-adv-x="580" />

<glyph glyph-name="list-table" unicode="&#xe845;" d="M834 90q42 0 73-30t31-75q0-42-30-73t-74-31l-730 0q-44 0-74 31t-30 73q0 44 31 75t73 30l730 0z m0 364q44 0 74-31t30-73-30-73-74-30l-730 0q-44 0-74 30t-30 73 30 73 74 31l730 0z m0 365q44 0 74-31t30-73q0-43-31-74t-73-31l-730 0q-43 0-73 31t-31 74q0 43 30 73t74 31l730 0z" horiz-adv-x="938" />

<glyph glyph-name="list-card" unicode="&#xe846;" d="M0-15q0 130 130 130t130-130-130-130-130 130z m0 365q0 130 130 130t130-130-130-130-130 130z m0 365q0 130 130 130t130-130-130-130-130 130z m365-730q0 130 130 130t130-130-130-130-130 130z m0 365q0 130 130 130t130-130-130-130-130 130z m0 365q0 130 130 130t130-130-130-130-130 130z m364-730q0 130 131 130 130 0 130-130t-130-130q-131 0-131 130z m0 365q0 130 131 130 130 0 130-130t-130-130q-131 0-131 130z m0 365q0 130 131 130 130 0 130-130t-130-130q-131 0-131 130z" horiz-adv-x="990" />

<glyph glyph-name="clubs" unicode="&#xe847;" d="M476 808c-34-3-66-15-94-36-10-8-27-25-35-35-26-35-38-74-37-117 2-44 15-81 44-125 8-12 17-24 38-50 34-43 45-59 56-81 5-8 10-20 9-21 0 0-18 13-48 37-30 24-33 26-45 34-40 29-75 44-115 49-12 1-37 1-48 0-42-6-80-25-109-55-27-28-43-62-49-100-2-14-2-38 0-52 5-29 16-57 33-81 6-8 9-12 17-20 29-30 65-48 107-54 11-2 38-2 50 0 42 6 78 22 122 55 5 3 20 15 33 26 24 19 36 28 46 35 8 6 18 12 18 12 1-1-3-16-10-43-20-80-42-148-66-202-10-23-27-54-37-70-2-4-4-7-4-7 0 0 3 0 7 1 39 6 77 10 121 11 48 0 97-3 148-12 3 0 5 0 5 0 0 0-2 3-4 7-15 23-30 53-44 87-23 56-47 134-67 216-2 10-3 12-2 12 1-1 5-4 10-7 13-8 27-19 52-39 40-33 61-47 85-60 24-12 48-19 75-22 9-2 36-2 45 0 41 5 77 22 106 51 22 22 36 44 45 72 16 46 12 96-10 139-33 67-103 107-178 101-40-3-74-16-113-42-14-9-28-20-56-42-12-9-25-19-28-22-10-7-22-16-23-16 0 1 6 14 9 21 11 21 24 40 55 79 10 11 20 24 23 28 38 49 55 86 61 132 1 11 1 36 0 47-6 42-23 77-53 106-21 21-44 35-72 45-9 3-20 5-31 7-10 1-32 2-42 1z" horiz-adv-x="1000" />

<glyph glyph-name="spades" unicode="&#xe848;" d="M482 807c-5-2-10-5-14-8-2-1-6-6-10-10-23-26-52-54-90-87-15-12-26-22-73-61-27-22-51-42-65-54-62-56-99-102-123-152-14-29-22-55-26-87-2-13-2-43-1-57 3-30 10-56 23-82 29-61 84-104 154-117 23-5 48-7 66-5 41 4 79 19 119 49 3 2 6 4 6 4 0 0 0-2-1-3 0-2-3-10-5-18-25-79-55-151-85-198-3-4-5-8-5-8 0 0 6 0 14 2 45 7 83 10 135 9 46 0 81-3 122-10 5-1 10-2 10-1 0 0-2 3-4 6-22 34-45 83-66 140-9 25-27 80-26 81 0 0 1-1 2-1 9-8 31-22 46-30 41-20 79-27 127-20 44 6 84 23 116 50 6 5 19 17 24 23 31 37 49 82 53 135 1 12 0 38-1 49-7 62-34 119-84 176-33 38-68 70-150 137-45 36-67 55-87 73-15 14-42 41-54 54-5 6-11 12-12 14-4 3-10 6-15 7-5 1-15 1-20 0z" horiz-adv-x="1000" />

<glyph glyph-name="dealer" unicode="&#xe922;" d="M36 71q5 15 21 30t39 27q4-17 10-53t12-76 11-80 10-63h202l-75 309 49 28q6-8 15-12t20-5 19 5 14 12l51-28-77-309h204q3 24 8 63t13 80 12 76 10 53q21-13 37-27t22-30q14-38 11-106t-7-109h25q4 44 7 113t-12 111q-9 25-41 50t-85 48q-26 12-49 20t-36 12v32q0 9-5 17t-13 13q-8 4-17 4t-17-4l-43-25q-6 6-14 10t-17 3q-10 0-18-3t-14-10l-43 25q-7 4-17 4t-17-4q-9-5-13-13t-4-17v-32q-15-4-37-12t-48-20q-54-23-86-48t-40-50q-15-41-13-111t7-113h25q-4 42-7 109t11 106l474-86z m168 560q11-16 78-20l68-4 67 4t78 20q6-18 15-71t4-108l-9-21q-37-91-93-110t-62-20q-7 1-63 20t-93 110l-8 21q-6 54 3 108t15 71v0z m145-355q3 1 20 3t41 13q23 0 43 21t41 48q48-10 86 6t60 52 23 89-23 117q-27 68-62 115t-74 72-79 27-75-20q-35 22-76 20t-79-27-74-72-61-115q-26-64-24-117t23-89 60-52 86-6q45-61 93-72t51-13z" horiz-adv-x="703.1" />

<glyph glyph-name="roulette" unicode="&#xe926;" d="M496 850q104 0 194-39t158-107 106-159 39-193q0-104-39-194t-106-159-158-107-194-39q-102 0-193 39t-157 107-107 159-39 194q0 103 39 193t107 159 157 107 193 39z m154-728l55-96q35 22 65 52t51 64l-95 56q-16-23-35-42t-41-34v0z m122 248h110q-2 43-13 83t-29 76l-96-56q11-23 18-49t10-54v0z m-28-140l96-56q18 36 29 76t13 83h-110q-2-28-10-54t-18-49v0z m77 331q-22 35-51 64t-65 52l-55-96q22-14 41-34t35-42z m-478 20l-55 96q-35-22-64-52t-52-64l96-56q14 23 33 42t42 34v0z m-94-108l-96 56q-18-36-29-76t-13-83h111q2 28 9 54t18 49v0z m369 127l56 96q-36 18-76 30t-83 13v-112q27-2 53-8t50-19v0z m-350-402l-96-56q22-35 52-64t64-52l55 96q-23 15-42 34t-33 42v0z m-46 135h-111q2-43 13-83t29-76l96 56q-12 23-18 49t-9 54v0z m153-230l-56-96q37-18 77-29t83-13v111q-29 2-55 8t-49 19v0z m140-27v-111q43 2 83 13t75 29l-55 96q-23-12-50-19t-53-8v0z m-36 551v112q-43-2-83-13t-77-30l56-96q23 12 49 19t55 8v0z m79-207q-7 6-15 11t-18 8q-2 1-5 2t-5 1v76h-36v-76q-3 0-6-1t-5-2q-9-3-17-8t-15-11l-4-4-4-3q-6-7-11-16t-8-17q0-2-1-5l-2-5h-75v-37h75q1-2 2-5t1-5q3-9 8-17t11-16l4-3 4-4q6-6 15-11t17-8q2-1 5-1t6-2v-76h36v76q3 1 5 2t5 1q9 3 18 8t15 11l4 4t3 3q6 7 11 16t7 17q1 3 2 5t2 5v0h75v37h-75l-2 5t-2 5q-3 9-7 17t-11 16l-3 3-4 4v0z m-6-68q0 22-16 39t-40 16q-22 0-38-16t-17-39q0-23 17-40t38-16q24 0 40 16t16 40z" horiz-adv-x="1000" />

<glyph glyph-name="twitter" unicode="&#xf099;" d="M904 622q-37-54-90-93 0-8 0-23 0-73-21-145t-64-139-103-117-144-82-181-30q-151 0-276 81 19-2 43-2 126 0 224 77-59 1-105 36t-64 89q19-3 34-3 24 0 48 6-63 13-104 62t-41 115v2q38-21 82-23-37 25-59 64t-22 86q0 49 25 91 68-83 164-133t208-55q-5 21-5 41 0 75 53 127t127 53q79 0 132-57 61 12 115 44-21-64-80-100 52 6 104 28z" horiz-adv-x="928.6" />

<glyph glyph-name="facebook" unicode="&#xf09a;" d="M535 843v-147h-87q-48 0-65-20t-17-60v-106h164l-22-165h-142v-424h-171v424h-142v165h142v122q0 104 58 161t155 57q82 0 127-7z" horiz-adv-x="571.4" />

<glyph glyph-name="bars" unicode="&#xf0c9;" d="M857 100v-71q0-15-10-25t-26-11h-785q-15 0-25 11t-11 25v71q0 15 11 25t25 11h785q15 0 26-11t10-25z m0 286v-72q0-14-10-25t-26-10h-785q-15 0-25 10t-11 25v72q0 14 11 25t25 10h785q15 0 26-10t10-25z m0 285v-71q0-14-10-25t-26-11h-785q-15 0-25 11t-11 25v71q0 15 11 26t25 10h785q15 0 26-10t10-26z" horiz-adv-x="857.1" />

<glyph glyph-name="magic" unicode="&#xf0d0;" d="M664 526l164 163-60 60-164-163z m250 163q0-15-10-25l-718-718q-10-10-25-10t-25 10l-111 111q-10 10-10 25t10 25l718 718q10 10 25 10t25-10l111-111q10-10 10-25z m-754 106l54-16-54-17-17-55-17 55-55 17 55 16 17 55z m195-90l109-34-109-33-34-109-33 109-109 33 109 34 33 109z m519-267l55-17-55-16-17-55-17 55-54 16 54 17 17 55z m-357 357l54-16-54-17-17-55-17 55-54 17 54 16 17 55z" horiz-adv-x="928.6" />

<glyph glyph-name="google" unicode="&#xf0d5;" d="M802 341q0-117-49-207t-138-142-206-51q-83 0-159 32t-131 87-87 131-32 159 32 159 87 131 131 87 159 32q160 0 274-107l-111-107q-65 63-163 63-69 0-127-34t-92-94-34-130 34-130 92-94 127-34q46 0 85 13t64 32 44 43 27 47 12 41h-232v141h386q7-36 7-68z m484 68v-118h-117v-116h-117v116h-117v118h117v116h117v-116h117z" horiz-adv-x="1285.7" />

<glyph glyph-name="money" unicode="&#xf0d6;" d="M429 207h214v54h-72v250h-63l-83-77 43-44q24 20 31 31h1v-160h-71v-54z m285 143q0-39-11-79t-34-75-56-56-77-22-77 22-57 56-33 75-12 79 12 79 33 75 57 56 77 22 77-22 56-56 34-75 11-79z m286-143v286q-59 0-101 42t-42 101h-643q0-59-42-101t-101-42v-286q60 0 101-42t42-101h643q0 59 42 101t101 42z m71 464v-642q0-15-10-25t-25-11h-1000q-15 0-25 11t-11 25v642q0 15 11 26t25 10h1000q14 0 25-10t10-26z" horiz-adv-x="1071.4" />

<glyph glyph-name="tachometer" unicode="&#xf0e4;" d="M214 207q0 30-21 51t-50 21-51-21-21-51 21-50 51-21 50 21 21 50z m107 250q0 30-20 51t-51 21-50-21-21-51 21-50 50-21 51 21 20 50z m239-268l57 213q3 14-5 27t-21 16-27-3-17-22l-56-213q-33-3-60-25t-35-55q-11-43 11-81t66-50 81 11 50 66q9 33-4 65t-40 51z m369 18q0 30-21 51t-51 21-50-21-21-51 21-50 50-21 51 21 21 50z m-358 357q0 30-20 51t-51 21-50-21-21-51 21-50 50-21 51 21 20 50z m250-107q0 30-20 51t-51 21-50-21-21-51 21-50 50-21 51 21 20 50z m179-250q0-145-79-269-10-17-30-17h-782q-20 0-30 17-79 123-79 269 0 102 40 194t106 160 160 107 194 39 194-39 160-107 106-160 40-194z" horiz-adv-x="1000" />

<glyph glyph-name="file-text-o" unicode="&#xf0f6;" d="M819 638q16-16 27-42t11-50v-642q0-23-15-38t-38-16h-750q-23 0-38 16t-16 38v892q0 23 16 38t38 16h500q22 0 49-11t42-27z m-248 136v-210h210q-5 17-12 23l-175 175q-6 7-23 12z m215-853v572h-232q-23 0-38 16t-16 37v233h-429v-858h715z m-572 483q0 7 5 12t13 5h393q8 0 13-5t5-12v-36q0-8-5-13t-13-5h-393q-8 0-13 5t-5 13v36z m411-125q8 0 13-5t5-13v-36q0-8-5-13t-13-5h-393q-8 0-13 5t-5 13v36q0 8 5 13t13 5h393z m0-143q8 0 13-5t5-13v-36q0-8-5-13t-13-5h-393q-8 0-13 5t-5 13v36q0 8 5 13t13 5h393z" horiz-adv-x="857.1" />

<glyph glyph-name="desktop" unicode="&#xf108;" d="M1000 296v465q0 7-5 12t-13 6h-893q-7 0-12-6t-6-12v-465q0-7 6-12t12-5h893q7 0 13 5t5 12z m71 465v-607q0-37-26-63t-63-27h-303q0-20 9-43t17-40 9-24q0-14-10-25t-25-11h-286q-15 0-25 11t-11 25q0 8 9 25t18 39 9 43h-304q-36 0-63 27t-26 63v607q0 37 26 63t63 26h893q37 0 63-26t26-63z" horiz-adv-x="1071.4" />

<glyph glyph-name="quote-right" unicode="&#xf10e;" d="M429 671v-392q0-58-23-111t-61-91-91-61-111-23h-36q-14 0-25 11t-11 25v71q0 15 11 25t25 11h36q59 0 101 42t42 101v17q0 23-16 38t-38 16h-125q-44 0-76 31t-31 76v214q0 45 31 76t76 32h214q45 0 76-32t32-76z m500 0v-392q0-58-23-111t-61-91-91-61-111-23h-36q-14 0-25 11t-11 25v71q0 15 11 25t25 11h36q59 0 101 42t42 101v17q0 23-16 38t-38 16h-125q-44 0-76 31t-31 76v214q0 45 31 76t76 32h214q45 0 76-32t32-76z" horiz-adv-x="928.6" />

<glyph glyph-name="gamepad" unicode="&#xf11b;" d="M464 243v71q0 8-5 13t-13 5h-107v107q0 8-5 13t-13 5h-71q-8 0-13-5t-5-13v-107h-107q-8 0-13-5t-5-13v-71q0-8 5-13t13-5h107v-107q0-8 5-13t13-5h71q8 0 13 5t5 13v107h107q8 0 13 5t5 13z m322-36q0 30-21 51t-51 21-50-21-21-51 21-50 50-21 51 21 21 50z m143 143q0 30-21 51t-51 20-50-20-21-51 21-50 50-21 51 21 21 50z m142-71q0-119-83-202t-202-84q-107 0-189 71h-123q-81-71-188-71-119 0-202 84t-84 202 84 202 202 83h500q118 0 202-83t83-202z" horiz-adv-x="1071.4" />

<glyph glyph-name="question" unicode="&#xf128;" d="M393 149v-134q0-9-7-15t-15-7h-134q-9 0-16 7t-7 15v134q0 9 7 16t16 6h134q9 0 15-6t7-16z m176 335q0-30-8-56t-20-43-31-33-32-25-34-19q-23-13-38-37t-15-37q0-10-7-18t-16-9h-134q-8 0-14 11t-6 20v26q0 46 37 87t79 60q33 16 47 32t14 42q0 24-26 41t-60 18q-36 0-60-16-20-14-60-64-7-9-17-9-7 0-14 4l-91 70q-8 6-9 14t3 16q89 148 259 148 45 0 90-17t81-46 59-72 23-88z" horiz-adv-x="571.4" />

<glyph glyph-name="shield" unicode="&#xf132;" d="M607 314v357h-250v-634q67 35 119 76 131 103 131 201z m107 429v-429q0-48-18-95t-47-84-66-71-70-57-68-43-50-28-23-11q-7-4-15-4t-14 4q-9 4-24 11t-50 28-67 43-71 57-66 71-46 84-19 95v429q0 14 11 25t25 11h643q14 0 25-11t10-25z" horiz-adv-x="714.3" />

<glyph glyph-name="rocket" unicode="&#xf135;" d="M804 600q0 22-16 38t-38 16-38-16-16-38 16-38 38-16 38 16 16 38z m125 161q0-139-43-240t-141-202q-45-44-109-98l-11-211q-1-9-9-15l-214-125q-4-2-9-2-7 0-13 5l-36 36q-7 7-4 17l47 155-156 156-154-47q-2-1-6-1-7 0-12 5l-36 36q-10 11-3 22l125 214q6 8 15 9l211 11q54 64 98 109 105 104 200 144t241 40q7 0 13-6t6-12z" horiz-adv-x="928.6" />

<glyph glyph-name="youtube-play" unicode="&#xf16a;" d="M397 221l270 139-270 141v-280z m103 481q94 0 181-3t128-5l41-2q0 0 9-1t13-2 13-2 16-5 16-7 17-11 16-15q4-3 9-10t16-33 15-56q4-36 7-76t3-64v-98q1-81-10-162-4-30-14-55t-18-35l-8-9q-7-8-16-15t-17-10-16-7-16-5-13-2-13-2-9-1q-140-11-350-11-115 2-201 4t-111 4l-28 3-20 2q-20 3-30 5t-29 12-31 23q-4 3-9 10t-16 33-15 56q-4 36-7 76t-3 64v98q-1 81 10 162 4 31 14 55t18 35l8 9q8 9 16 15t17 11 16 7 16 5 13 2 13 2 9 1q140 10 350 10z" horiz-adv-x="1000" />

<glyph glyph-name="apple" unicode="&#xf179;" d="M777 172q-21-70-68-139-72-110-144-110-27 0-78 18-48 18-84 18-34 0-79-19-45-19-74-19-85 0-168 145-82 146-82 281 0 127 63 208 63 81 159 81 40 0 98-17 58-17 77-17 25 0 80 19 57 19 97 19 66 0 119-36 29-20 58-56-44-37-64-66-36-52-36-115 0-69 38-125t88-70z m-209 655q0-34-17-76-16-42-52-77-30-30-60-40-20-7-58-10 2 83 44 143 41 60 139 83 1-2 2-6t1-6q0-2 0-6t1-5z" horiz-adv-x="785.7" />

<glyph glyph-name="android" unicode="&#xf17b;" d="M0 201l0 269q0 26 19 45t44 18q26 0 45-18t18-45l0-269q0-26-18-44t-45-19-44 19-19 44z m173-100l0 418 574 0 0-418q0-26-18-44t-45-19l-448 0q-26 0-44 19t-19 44z m0 465l574 0q0 115-85 189t-202 74-202-74-85-189z m101 316q0 8 7 8 3 0 7-2l49-89-15-8q-48 88-48 91z m15-807q0 27 19 45t47 18q25 0 44-19t19-44l0-202q0-28-19-46t-47-17q-26 0-44 18t-19 45l0 202z m5 620q0 16 12 28t28 11 28-11 11-28q0-17-11-28t-29-12q-16 0-27 12t-12 28z m208-620q0 27 20 45t46 18q26 0 45-18t18-45l0-202q0-28-19-46t-47-17q-26 0-44 18t-19 45l0 202z m45 620q0 16 12 28t28 11 28-11 11-28q0-17-12-28t-28-12-27 12-12 28z m36 104q2 3 14 29t24 44 18 18 7-9l0-2-48-89z m211-598l0 268q0 26 19 45t44 19 45-19 18-45l0-268q0-26-18-44t-45-19-45 19-18 44z" horiz-adv-x="920" />

<glyph glyph-name="vk" unicode="&#xf189;" d="M1070 560q13-36-84-164-13-18-36-48-22-28-31-40t-17-27-7-24 8-19 18-24 32-30q2-1 2-2 79-73 107-123 2-3 4-7t4-15-1-19-14-15-33-7l-142-3q-14-2-32 3t-29 13l-11 6q-17 12-39 36t-38 43-34 33-32 8q-1 0-4-2t-10-8-12-16-9-29-4-44q0-8-2-15t-4-10l-2-3q-10-11-30-12h-64q-40-3-81 9t-74 29-57 37-40 32l-14 14q-5 5-15 17t-40 50-59 85-68 117-73 152q-4 9-4 15t2 9l2 3q9 11 32 11l153 1q7-1 13-3t9-5l3-2q9-6 13-18 11-28 26-57t23-46l9-16q16-34 31-58t27-38 23-22 19-8 15 3q1 1 3 3t7 12 7 26 5 46 0 69q-1 23-5 41t-7 26l-4 6q-14 19-47 24-8 2 3 14 8 10 21 17 29 14 133 13 46-1 75-7 12-3 19-8t12-13 5-18 2-25 0-31-2-40 0-46q0-6-1-23t0-27 2-22 6-22 13-14q4-1 9-2t15 6 21 19 29 38 38 60q33 58 60 125 2 6 5 10t6 6l3 2 2 1t8 2 11 0l160 1q22 3 36-1t17-10z" horiz-adv-x="1071.4" />

<glyph glyph-name="slack" unicode="&#xf198;" d="M848 417q34 0 57-23t24-56q0-54-52-73l-96-33 31-93q4-12 4-26 0-33-24-57t-56-24q-26 0-48 15t-29 40l-31 92-173-59 31-91q4-14 4-27 0-33-23-57t-57-24q-27 0-48 15t-29 41l-31 91-85-30q-17-5-28-5-34 0-57 22t-23 57q0 26 16 47t40 30l87 29-59 175-87-30q-14-5-27-5-33 0-56 23t-23 56q0 26 15 48t40 29l88 30-30 88q-4 14-4 27 0 33 23 57t57 24q26 0 48-16t29-40l30-89 173 59-30 89q-4 13-4 26 0 33 23 57t57 24q26 0 48-15t30-40l29-90 91 31q11 3 24 3 33 0 57-22t24-55q0-25-17-45t-41-29l-88-30 59-177 91 32q13 4 26 4z m-443-146l173 58-59 176-173-60z" horiz-adv-x="928.6" />

<glyph glyph-name="university" unicode="&#xf19c;" d="M536 850l535-214v-72h-71q0-14-11-25t-27-10h-852q-16 0-27 10t-12 25h-71v72z m-393-357h143v-429h71v429h143v-429h71v429h143v-429h72v429h143v-429h33q15 0 27-10t11-25v-36h-929v36q0 14 12 25t27 10h33v429z m890-536q16 0 27-11t11-25v-71h-1071v71q0 15 11 25t28 11h994z" horiz-adv-x="1142.9" />

<glyph glyph-name="language" unicode="&#xf1ab;" d="M365 248q-1-1-7 1t-18 6l-11 5q-24 11-48 28-4 2-23 17t-21 16q-38-57-75-101-45-53-59-61-2-1-11-3t-10 0q3 3 46 52 12 13 48 64t43 66q10 17 29 55t20 43q-5 1-61-18-5-2-16-5t-19-5-10-3q-1-1-1-6t0-5q-3-5-18-8-12-4-26 0-10 2-15 11-3 4-3 13 3 1 13 3t17 3q32 9 59 18 55 20 56 20 6 1 24 11t25 12q5 1 12 4t8 3 3 0q2-7 0-18 0-2-7-16t-15-29-9-19q-14-28-43-73l35-16q7-3 42-18t38-15q2-1 5-14t3-18z m-114 272q1-9-3-16-6-13-28-21-16-7-33-7-15 2-27 15-8 8-10 23l0 1q2-1 11-3t15 0 32 9q20 7 31 8 9 0 12-9z m389-72l35-127-77 23z m-618-447l387 130v576l-387-130v-576z m692 177l57-17-101 367-56 17-120-299 57-18 25 62 118-36z m-280 537l319-103v212z m173-738l88-8-30-89-22 37q-73-46-154-60-32-7-51-7h-47q-44 0-111 22t-102 47q-5 4-5 9 0 5 3 8t7 3q2 0 10-5t17-9 12-6q40-21 89-34t87-14q54 0 94 8t87 28q9 4 17 9t19 11 16 9z m250 602v-602l-432 137q-8-3-209-71t-205-68q-8 0-10 7 0 1-1 2v602q2 5 2 5 3 3 11 6 60 20 84 28v214l311-110q1 0 90 31t176 60 90 30q11 0 11-12v-233z" horiz-adv-x="857.1" />

<glyph glyph-name="life-ring" unicode="&#xf1cd;" d="M500 850q102 0 194-40t160-106 106-160 40-194-40-194-106-160-160-106-194-40-194 40-160 106-106 160-40 194 40 194 106 160 160 106 194 40z m0-71q-106 0-201-51l108-108q46 16 93 16t93-16l109 108q-96 51-202 51z m-378-630l108 108q-16 46-16 93t16 93l-108 109q-51-96-51-202t51-201z m378-228q106 0 202 51l-109 108q-46-16-93-16t-93 16l-108-108q95-51 201-51z m0 215q89 0 152 63t62 151-62 152-152 62-151-62-63-152 63-151 151-63z m270 121l108-108q51 95 51 201t-51 202l-108-109q16-46 16-93t-16-93z" horiz-adv-x="1000" />

<glyph glyph-name="newspaper-o" unicode="&#xf1ea;" d="M571 564h-214v-214h214v214z m72-357v-71h-357v71h357z m0 429v-357h-357v357h357z m357-429v-71h-286v71h286z m0 143v-71h-286v71h286z m0 143v-72h-286v72h286z m0 143v-72h-286v72h286z m-857-536v536h-72v-536q0-14 11-25t25-11 25 11 11 25z m928 0v607h-857v-607q0-18-6-36h828q14 0 25 11t10 25z m72 679v-679q0-45-31-76t-76-31h-929q-44 0-76 31t-31 76v607h143v72h1000z" horiz-adv-x="1142.9" />

<glyph glyph-name="calc" unicode="&#xf1ec;" d="M214-7q0 29-21 50t-50 21-51-21-21-50 21-51 51-21 50 21 21 51z m215 0q0 29-21 50t-51 21-50-21-21-50 21-51 50-21 51 21 21 51z m-215 214q0 30-21 51t-50 21-51-21-21-51 21-50 51-21 50 21 21 50z m429-214q0 29-21 50t-51 21-50-21-21-50 21-51 50-21 51 21 21 51z m-214 214q0 30-21 51t-51 21-50-21-21-51 21-50 50-21 51 21 21 50z m-215 214q0 30-21 51t-50 21-51-21-21-51 21-50 51-21 50 21 21 50z m429-214q0 30-21 51t-51 21-50-21-21-51 21-50 50-21 51 21 21 50z m-214 214q0 30-21 51t-51 21-50-21-21-51 21-50 50-21 51 21 21 50z m428-428v214q0 29-21 50t-50 22-50-22-22-50v-214q0-29 22-50t50-22 50 22 21 50z m-214 428q0 30-21 51t-51 21-50-21-21-51 21-50 50-21 51 21 21 50z m214 179v143q0 14-10 25t-26 11h-714q-14 0-25-11t-11-25v-143q0-14 11-25t25-11h714q15 0 26 11t10 25z m0-179q0 30-21 51t-50 21-51-21-21-51 21-50 51-21 50 21 21 50z m72 358v-858q0-29-22-50t-50-21h-786q-29 0-50 21t-21 50v858q0 29 21 50t50 21h786q29 0 50-21t22-50z" horiz-adv-x="1000" />

<glyph glyph-name="visa" unicode="&#xf1f0;" d="M1102 298h-77q8 20 37 99l2 6q2 5 5 14t5 15l7-31z m-806 36l-32 164q-6 31-42 31h-149l-2-8q174-44 225-187z m100 195l-90-245-10 50q-14 39-47 72t-73 50l75-285h98l145 358h-98z m78-359h92l58 359h-92z m428 350q-38 15-83 15-68 0-112-33t-44-86q-1-56 81-97 27-12 37-23t11-21q0-17-17-26t-38-9q-48 0-87 19l-13 6-13-81q42-19 104-19 72 0 116 33t45 90q0 59-78 97-27 14-40 23t-12 21q0 13 14 22t39 9q39 1 69-13l9-5z m238 9h-72q-36 0-48-31l-138-328h97l20 54h118q3-12 11-54h86z m146 178v-714q0-29-21-50t-51-22h-1143q-29 0-50 22t-21 50v714q0 29 21 50t50 22h1143q29 0 51-22t21-50z" horiz-adv-x="1285.7" />

<glyph glyph-name="at" unicode="&#xf1fa;" d="M542 418q0 60-29 94t-83 34q-35 0-69-17t-61-47-45-77-17-100q0-63 30-97t84-34q54 0 98 37t69 93 23 114z m315-68q0-62-20-110t-55-75-74-42-81-15q-3 0-8 0t-10-1q-53 0-79 30-15 18-18 46-29-37-74-61t-96-25q-90 0-140 54t-49 150q0 88 37 162t100 117 137 43q48 0 86-19t60-56l1 11 6 31q0 3 3 7t5 3h66q3 0 7-6 3-3 2-9l-67-343q-3-13-3-26 0-22 7-29t25-8q16 1 32 3t41 14 43 28 31 50 14 76q0 163-97 260t-260 97q-73 0-139-28t-114-76-76-114-29-139 29-139 76-113 114-77 139-28q127 0 226 80 6 5 13 5t12-7l23-27q4-7 4-14-2-7-7-12-57-46-127-72t-144-25q-87 0-167 34t-136 92-92 137-34 166 34 166 92 137 136 92 167 34q192 0 310-119t118-310z" horiz-adv-x="857.1" />

<glyph glyph-name="pie-chart" unicode="&#xf200;" d="M429 353l304-304q-59-61-138-94t-166-34q-117 0-216 58t-155 156-58 215 58 215 155 156 216 58v-426z m104-3h431q0-88-33-167t-94-138z m396 71h-429v429q117 0 215-57t156-156 58-216z" horiz-adv-x="1000" />

<glyph glyph-name="alert" unicode="&#xf219;" d="M885 234q20-16 16-33t-28-23l-78-22q-24-6-40-28t-14-48l4-82q2-24-14-34t-38 0l-86 44q-22 12-47 4t-35-30l-46-88q-12-22-29-23t-33 19l-50 78q-34 48-88 20l-122-70q-22-14-32-6t-2 32l54 164q8 24-4 44t-36 22l-106 12q-24 4-29 18t15 30l86 76q20 16 20 41t-20 41l-86 76q-20 16-16 33t28 23l78 22q24 6 41 28t15 48l-6 82q0 26 15 36t37 0l80-38q24-10 49-2t37 30l46 80q12 22 30 21t30-23l50-86q12-22 35-29t45 7l136 84q22 14 30 6t0-32l-60-170q-10-22 2-41t38-21l114-12q26-2 30-16t-16-30l-86-76q-18-16-18-41t18-41z m-384-92l0 104-100 0 0-104 100 0z m0 160l0 260-100 0 0-260 100 0z" horiz-adv-x="901" />

<glyph glyph-name="user-secret" unicode="&#xf21b;" d="M321-7l54 250-54 71-71 36z m143 0l72 357-72-36-53-71z m90 564q-1 2-3 3-5 4-53 4-39 0-93-10-4-1-12-1t-12 1q-54 10-93 10-48 0-54-4-1-1-2-3 1-11 2-16 2-1 5-3t4-6q1-2 4-11t4-12 4-9 5-10 5-8 7-7 7-6 10-4 12-2 13-1q20 0 33 7t18 16 8 20 7 16 10 7h6q6 0 10-7t6-16 9-20 18-16 33-7q7 0 13 1t12 2 9 4 8 6 7 7 5 8 5 10 4 9 4 12 4 11q1 4 4 6t4 3q2 5 3 16z m232-491q0-68-41-106t-108-39h-488q-67 0-108 39t-41 106q0 34 3 66t10 70 21 69 36 58 52 41l-51 123h120q-12 36-12 71 0 7 1 18-109 23-109 54 0 32 118 55 9 35 28 75t40 63q18 21 42 21 17 0 47-17t47-18 47 18 47 17q24 0 42-21 20-23 39-63t29-75q117-23 117-55 0-31-108-54 4-45-11-89h119l-45-126q35-18 60-54t36-80 16-84 5-83z" horiz-adv-x="857.1" />

<glyph glyph-name="odnoklassniki" unicode="&#xf263;" d="M357 344q-105 0-179 74t-74 179q0 105 74 179t179 74 179-74 75-179q0-105-75-179t-179-74z m0 378q-51 0-88-37t-36-88q0-52 36-88t88-37 88 37 37 88q0 52-37 88t-88 37z m292-409q7-15 8-27t-2-23-15-21-24-21-34-23q-64-41-176-53l41-40 149-149q17-17 17-41t-17-41l-7-7q-17-17-41-17t-41 17q-38 38-149 149l-149-149q-18-17-42-17t-40 17l-7 7q-17 17-17 41t17 41l149 149 40 40q-113 12-177 53-21 14-34 23t-24 21-15 21-2 23 8 27q6 11 16 20t23 12 32-1 36-20q3-2 8-6t24-13 39-17 51-14 63-6q51 0 97 14t67 28l21 14q19 15 37 20t31 1 23-12 16-20z" horiz-adv-x="714.3" />

<glyph glyph-name="wikipedia-w" unicode="&#xf266;" d="M834-65l-165 388q-14-27-88-170t-111-218q-1 0-15 0t-15 1q-46 108-143 328t-145 332q-11 28-37 60t-57 56-57 24q0 3-1 14t0 15h325v-28q-21-1-44-9t-37-24-6-36q15-33 121-278t132-302q17 34 78 149t73 138q-11 22-71 157t-75 165q-22 38-113 39v28l287 0v-27q-34-1-52-14t-7-38q18-39 48-106t48-105q61 120 97 203 13 31-6 44t-72 15q1 4 1 14v14q35 0 95 0t100 0 52 1v-28q-35-1-67-18t-50-45l-119-247q8-18 71-162t68-153l246 568q-7 21-27 35t-37 17-30 5v28l256-3 1-1-1-24q-77-2-112-81-293-679-312-721h-27z" horiz-adv-x="1285.7" />

<glyph glyph-name="calendar-check-o" unicode="&#xf274;" d="M727 312l-286-286q-5-5-12-5t-13 5l-161 161q-5 6-5 13t5 12l26 26q5 5 12 5t13-5l123-123 247 248q6 5 13 5t13-5l25-26q5-5 5-12t-5-13z m-656-391h786v572h-786v-572z m215 679v161q0 8-5 13t-13 5h-36q-8 0-13-5t-5-13v-161q0-8 5-13t13-5h36q8 0 13 5t5 13z m428 0v161q0 8-5 13t-13 5h-35q-8 0-13-5t-5-13v-161q0-8 5-13t13-5h35q8 0 13 5t5 13z m215 36v-715q0-29-22-50t-50-21h-786q-29 0-50 21t-21 50v715q0 29 21 50t50 21h72v54q0 37 26 63t63 26h36q37 0 63-26t26-63v-54h214v54q0 37 27 63t63 26h35q37 0 64-26t26-63v-54h71q29 0 50-21t22-50z" horiz-adv-x="1000" />

<glyph glyph-name="commenting" unicode="&#xf27a;" d="M357 350q0 30-21 51t-50 20-51-20-21-51 21-50 51-21 50 21 21 50z m214 0q0 30-20 51t-51 20-50-20-21-51 21-50 50-21 51 21 20 50z m215 0q0 30-21 51t-51 20-50-20-21-51 21-50 50-21 51 21 21 50z m214 0q0-97-67-179t-182-130-251-48q-61 0-118 10-96-97-242-128-29-6-48-7-7-1-13 3t-7 10q-2 9 11 21 3 3 13 12t15 13 13 14 13 18 11 20 12 27 8 32 7 41q-82 50-128 121t-47 150q0 97 67 179t182 130 251 48 251-48 182-130 67-179z" horiz-adv-x="1000" />

<glyph glyph-name="scribd" unicode="&#xf28a;" d="M837-14q0-50-35-86t-85-35-86 35-36 86q0 50 36 85t86 36 85-36 35-85z m-130 156q-64-8-107-57t-44-115q0-41 19-77-82-43-212-43-60 0-112 12t-85 30-62 43-43 47-24 47-14 37-3 22q0 10 3 23t10 32 20 32 36 24 53 10 52-9 35-23 20-30 10-27 2-19q0-19-13-45 16-15 46-23t52-10l22-1q65 0 106 29t42 74q0 15-5 27t-17 25-28 23-41 24-52 27-67 32q-16 7-24 11-65 30-104 55t-69 57-40 70-11 91q0 44 11 84t37 77 63 63 92 43 124 16q67 0 123-14t92-38 61-52 35-59 11-58q0-26-8-46t-21-32-27-20-27-11-22-3h-22t-22 3-24 8-23 15-21 26-13 39-6 55q-8 8-33 14t-45 6l-21 0q-38 0-65-17t-40-39-11-43q0-13 2-24t14-25 29-29 55-30 83-32q43-14 78-30t60-31 47-33 33-33 23-35 15-35 8-35 4-35 0-35z" horiz-adv-x="857.1" />

<glyph glyph-name="percent" unicode="&#xf295;" d="M714 136q0 29-21 50t-50 21-50-21-22-50 22-50 50-22 50 22 21 50z m-428 428q0 29-21 51t-51 21-50-21-21-51 21-50 50-21 51 21 21 50z m571-428q0-89-63-152t-151-63-152 63-62 152 62 151 152 63 151-63 63-151z m-53 607q0-11-8-21l-589-786q-11-15-28-15h-90q-14 0-25 11t-10 25q0 11 7 21l589 786q11 15 29 15h89q14 0 25-11t11-25z m-375-179q0-88-63-151t-152-63-151 63-63 151 63 152 151 63 152-63 63-152z" horiz-adv-x="857.1" />

<glyph glyph-name="help-circle-o" unicode="&#xf29c;" d="M491 180v-89q0-8-5-13t-13-5h-89q-8 0-13 5t-5 13v89q0 8 5 13t13 5h89q8 0 13-5t5-13z m143 277q0-28-8-50t-26-39-29-24-33-20q-18-10-26-16t-14-13-7-16v-18q0-8-5-13t-13-5h-89q-8 0-13 5t-5 13v38q0 19 6 36t13 26 22 20 23 14 25 12q29 14 42 24t12 27q0 24-24 40t-54 17q-31 0-53-15-16-12-44-47-5-6-14-6-6 0-11 3l-60 46q-6 4-7 11t3 13q68 107 195 107 72 0 133-50t61-120z m-205 250q-73 0-139-28t-114-76-76-114-29-139 29-139 76-113 114-77 139-28 138 28 114 77 76 113 29 139-29 139-76 114-114 76-138 28z m428-357q0-117-57-215t-156-156-215-58-216 58-155 156-58 215 58 215 155 156 216 58 215-58 156-156 57-215z" horiz-adv-x="857.1" />

<glyph glyph-name="mastercard" unicode="&#xf329;" d="M624 660q-71 47-156 47-58 0-111-22t-90-61-61-90-22-110q0-58 22-111t61-90 90-61 111-22q85 0 156 47-73 60-99 148t0 177 99 148z m19-14q-70-55-96-139t0-168 96-139q71 56 96 139t0 168-96 139z m18 14q73-60 99-148t1-177-100-148q72-47 157-47 58 0 111 22t90 61 61 90 22 111q0 57-22 110t-61 90-91 61-110 22q-85 0-157-47z m414-403h4v2h-10v-2h4v-10h2v10z m16-10h2v12h-3l-3-8-3 8h-3v-12h2v9l3-8h2l3 8v-9z m-4-245v-1h-3v1h3v0z m0-5h1l-2 3h1l1 0q0 1 0 2t0 2l-1 0h-5v-7h2v3h0z m-705 38q0 10 6 17t17 7q10 0 16-7t7-17q0-11-7-18t-16-6q-10 0-17 6t-6 18z m264 24q17 0 20-18h-39q3 18 19 18z m199-24q0 10 6 17t16 7 17-7 6-17q0-11-6-18t-17-6q-10 0-16 6t-6 18z m152 0q0 10 6 17t17 7 16-7 6-17q0-11-6-18t-16-6-17 7-6 17z m88-41q-1 0-2 1-1 0-2 1t-1 2q-1 1-1 2 0 2 1 2 0 2 1 3l1 0q1 0 1 1 1 0 2 0 2 0 2 0l2-1 1-3v0q1-1 1-2l-1 0v-2t0-1l-1-1q-1-1-2-1 0-1-2-1z m-751 3h17v47q0 14-8 22t-22 8q-18 0-26-13-8 13-25 13-14 0-22-11v9h-17v-75h17v42q0 20 18 20 17 0 17-20v-42h16v42q0 20 19 20 16 0 16-20v-42z m93 0h16v75h-16v-9q-10 11-24 11-16 0-27-11t-10-28 10-29 27-11q16 0 24 11v-9z m99 23q0 19-26 22l-8 1q-13 2-13 8 0 8 14 8 13 0 24-6l7 14q-12 7-31 7-14 0-23-6t-8-18q0-19 26-22l8-1q13-2 13-8 0-9-17-9-14 0-25 7l-8-12q14-10 33-10 16 0 25 7t9 18z m73-19l-5 14q-7-4-14-4-11 0-11 12v34h27v15h-27v23h-16v-23h-16v-15h16v-34q0-28 26-28 11 0 20 6z m48 73q-16 0-27-11t-11-28q0-18 11-29t28-11q18 0 31 11l-8 12q-10-8-22-8-19 0-23 18h57v7q0 18-11 28t-25 11z m89 0q-13 0-20-11v9h-17v-75h17v42q0 20 16 20 6 0 10-2l5 15q-5 2-11 2z m16-39q0-18 11-29t29-11q17 0 27 9l-8 13q-10-7-19-6-10 0-17 6t-6 18 6 17 17 7q11 0 19-7l8 13q-11 9-27 9-18 0-29-11t-11-28z m137-38h17v75h-17v-9q-8 11-23 11-17 0-28-11t-10-28 10-29 28-11q15 0 23 11v-9z m74 77q-13 0-19-11v9h-16v-75h16v42q0 20 16 20 5 0 10-2l5 15q-5 2-12 2z m78-77h17v106h-17v-40q-8 11-24 11t-26-11-11-28 11-28 26-12q17 0 24 11v-9z m44 11l-1-1h-2q-1 0-2-1-2-1-2-2 0-2 0-4 0-2 0-3 0-1 2-2 1-1 2-2t3 0q2 0 3 0 0 1 1 1l1 1q1 1 2 2 1 1 1 3 0 2-1 4 0 0-2 2 0 0-1 1l-1 0q0 0-1 1t-2 0z m201 699v-714q0-29-21-50t-51-22h-1143q-29 0-50 22t-21 50v714q0 29 21 50t50 22h1143q29 0 51-22t21-50z" horiz-adv-x="1285.7" />
</font>
</defs>
</svg>
